<svg id="SvgjsSvg1001" width="59" height="55" xmlns="http://www.w3.org/2000/svg" version="1.1" xmlns:xlink="http://www.w3.org/1999/xlink" xmlns:svgjs="http://svgjs.com/svgjs"><defs id="SvgjsDefs1002"></defs><g id="SvgjsG1008"><svg xmlns="http://www.w3.org/2000/svg" width="59" height="55" enable-background="new 0 0 24 24" viewBox="0 0 24 24"><path d="M12,16c-4.4,0-8-3.6-8-8s3.6-8,8-8s8,3.6,8,8S16.4,16,12,16z M12,2C8.7,2,6,4.7,6,8s2.7,6,6,6s6-2.7,6-6S15.3,2,12,2z" fill="#f6a515" class="color000 svgShape"></path><path d="M16,24c-0.2,0-0.3,0-0.4-0.1L12,22.1l-3.6,1.8c-0.3,0.2-0.7,0.1-1,0C7.2,23.7,7,23.3,7,23v-9c0-0.6,0.4-1,1-1s1,0.4,1,1
				v7.4l2.6-1.3c0.3-0.1,0.6-0.1,0.9,0l2.6,1.3V14c0-0.6,0.4-1,1-1s1,0.4,1,1v9c0,0.3-0.2,0.7-0.5,0.9C16.4,23.9,16.2,24,16,24z" fill="#f6a515" class="color000 svgShape"></path></svg></g></svg>