<?xml version="1.0" encoding="utf-8"?>
<!-- Generator: Adobe Illustrator 18.1.1, SVG Export Plug-In . SVG Version: 6.00 Build 0)  -->
<svg version="1.1" id="Layer_1" xmlns="http://www.w3.org/2000/svg" xmlns:xlink="http://www.w3.org/1999/xlink" x="0px" y="0px"
	 viewBox="0 0 692 626" enable-background="new 0 0 692 626" xml:space="preserve">
<g>
	
		<ellipse transform="matrix(0.999 4.385764e-002 -4.385764e-002 0.999 13.8178 -14.0223)" opacity="0.44" fill="#1E417C" cx="326.5" cy="307.9" rx="273.7" ry="253.5"/>
	<ellipse fill="#1E417C" cx="311.7" cy="289.6" rx="214.7" ry="202.9"/>
	<g opacity="0.68">
		<g>
			<path fill="#FFFFFF" d="M396.1,309.1c0,0,0,1,0,3.1c0,2,0,5-0.1,9c-0.1,7.9-0.4,19.4-1.1,34c-0.8,14.7-2.1,32.4-4.6,52.7
				c-2.5,20.3-6.1,43.1-12.2,67.5c-3.1,12.2-6.8,24.8-11.9,37.4c-2.5,6.3-5.4,12.6-8.9,18.8c-1.7,3.1-3.6,6.1-5.7,9
				c-2.1,2.9-4.4,5.7-7.1,8.2c-2.6,2.5-5.6,4.8-9.1,6.4c-1.7,0.8-3.5,1.4-5.4,1.7c-1.9,0.3-3.8,0.4-5.7,0.2c-3.8-0.4-7.5-1.9-10.7-4
				c-3.2-2.1-6-4.8-8.5-7.6c-5-5.8-9-12.4-12.5-19.4c-3.5-6.9-6.4-14.2-9.1-21.6c-5.3-14.8-9.3-30.4-12.7-46.2
				c-3.3-15.8-6-32-8-48.4c-4.1-32.8-6.1-66.3-6.2-99.9c0-16.8,0.5-33.5,1.4-50.2c0.9-16.7,2.3-33.3,4.1-49.7
				c1.9-16.4,4.3-32.6,7.3-48.5c3.1-15.9,6.9-31.5,11.8-46.4c2.5-7.5,5.3-14.8,8.6-21.8c3.4-7,7.2-13.7,12.1-19.5
				c2.5-2.9,5.2-5.6,8.4-7.7c3.2-2.1,6.8-3.6,10.5-3.9c0.9-0.1,1.9-0.1,2.8-0.1c1,0,1.9,0.2,2.8,0.3c1.8,0.3,3.6,0.9,5.3,1.7
				c3.4,1.5,6.4,3.7,9.1,6.2c2.7,2.5,5.1,5.2,7.2,8c2.2,2.8,4.1,5.8,5.9,8.8c3.6,6,6.6,12.3,9.3,18.5c5.4,12.5,9.4,25,12.7,37.1
				c6.7,24.3,10.6,47.1,13.4,67.3c1.4,10.1,2.4,19.6,3.3,28.4c0.8,8.8,1.4,16.9,1.8,24.2c0.9,14.7,1.1,26.2,1.3,34
				C396.1,304.9,396.1,309.1,396.1,309.1z M393.4,309.1c0,0,0-4.2-0.1-12c-0.1-7.8-0.4-19.3-1.2-33.9c-0.4-7.3-1-15.4-1.7-24.2
				c-0.8-8.8-1.7-18.3-3-28.4c-1.3-10.1-2.9-20.8-5-32.1c-2.1-11.2-4.6-23-7.8-35.1c-3.2-12.1-7.1-24.6-12.4-37
				c-2.6-6.2-5.6-12.4-9.1-18.4c-1.8-3-3.7-5.9-5.8-8.8c-2.1-2.8-4.4-5.5-7-8c-2.6-2.4-5.5-4.6-8.8-6.1c-3.3-1.5-6.9-2.3-10.5-1.9
				c-3.6,0.4-7.1,1.8-10.1,3.9c-3.1,2.1-5.7,4.7-8.1,7.6c-4.8,5.8-8.5,12.5-11.8,19.4c-3.2,7-6,14.2-8.4,21.7
				c-4.8,14.9-8.4,30.5-11.4,46.3c-2.9,15.9-5.2,32-6.9,48.4c-3.4,32.7-4.8,66.2-4.7,99.6c-0.1,33.4,1.7,66.9,5.6,99.6
				c2,16.3,4.5,32.5,7.7,48.3c3.3,15.8,7.2,31.2,12.3,46c2.6,7.4,5.5,14.6,8.9,21.5c3.4,6.9,7.3,13.4,12.2,19.1
				c2.4,2.8,5.1,5.4,8.2,7.4c3,2,6.4,3.4,10,3.8c3.5,0.4,7.1-0.4,10.3-1.9c3.2-1.5,6.1-3.7,8.6-6.1c2.5-2.5,4.8-5.2,6.8-8.1
				c2-2.9,3.9-5.8,5.6-8.9c3.4-6.1,6.2-12.3,8.6-18.6c4.9-12.6,8.6-25.1,11.6-37.3c3-12.2,5.3-24,7.2-35.2c1.9-11.3,3.4-22,4.6-32.1
				c1.2-10.1,2.1-19.6,2.8-28.4c0.7-8.8,1.2-16.9,1.6-24.2c0.7-14.6,1-26.1,1.1-33.9c0-3.9,0.1-6.9,0.1-8.9
				C393.4,310.2,393.4,309.1,393.4,309.1z"/>
		</g>
		<g>
			<path fill="#FFFFFF" d="M508.8,309.1c0,0,0,1.3,0,3.9c0,1.3,0,2.9-0.1,4.9c-0.1,1.9-0.1,4.2-0.3,6.7c-0.2,5.1-0.7,11.3-1.4,18.6
				c-0.8,7.3-1.9,15.7-3.6,24.9c-3.4,18.5-9.3,40.9-20,65c-5.3,12-11.9,24.5-19.9,36.8c-8.1,12.4-17.6,24.7-29,36.1
				c-5.7,5.7-11.9,11.3-18.5,16.4c-6.6,5.2-13.7,10-21.3,14.3c-15.1,8.7-32.2,15.3-50.5,18.4c-9.1,1.6-18.6,2.3-28.1,2.1
				c-4.7-0.1-9.6-0.4-14.3-1c-4.8-0.6-9.6-1.4-14.3-2.4c-19-4.2-37.6-12.4-54.4-23.7c-16.8-11.3-32-25.6-44.9-41.9
				c-13-16.3-23.9-34.5-32.6-53.9c-8.7-19.4-15.3-39.9-19.6-61c-4.4-21.1-6.4-42.7-6.5-64.3c0.1-21.6,2.1-43.2,6.5-64.3
				c4.3-21.1,10.9-41.6,19.6-61c8.7-19.4,19.6-37.6,32.6-53.9c13-16.3,28.1-30.6,44.9-41.8c16.8-11.3,35.3-19.4,54.3-23.6
				c19-4.2,38.4-4.5,56.7-1.4c18.3,3.1,35.4,9.7,50.5,18.3c7.6,4.3,14.7,9.1,21.3,14.3c6.7,5.1,12.8,10.7,18.5,16.4
				c11.4,11.5,21,23.8,29.1,36.1c8.1,12.4,14.6,24.8,19.9,36.8c10.6,24.1,16.5,46.4,20,65c1.7,9.3,2.9,17.6,3.6,24.9
				c0.8,7.3,1.2,13.5,1.4,18.6c0.1,2.5,0.2,4.8,0.3,6.7c0.1,1.9,0.1,3.5,0.1,4.9C508.8,307.8,508.8,309.1,508.8,309.1L508.8,309.1z
				 M505.8,309.1c0,0,0-1.3,0-3.9c0-1.3,0-2.9-0.1-4.8c-0.1-1.9-0.1-4.1-0.2-6.6c-0.2-5-0.6-11.2-1.4-18.4
				c-0.7-7.2-1.8-15.5-3.5-24.7c-0.8-4.6-1.9-9.4-3-14.5c-1.2-5-2.5-10.3-4.1-15.7c-3.1-10.8-7.1-22.4-12.3-34.3
				c-5.2-12-11.6-24.3-19.4-36.6c-7.9-12.3-17.3-24.6-28.5-36.1c-5.6-5.7-11.7-11.3-18.2-16.4c-0.8-0.6-1.6-1.3-2.5-1.9
				c-0.8-0.6-1.7-1.3-2.5-1.9c-1.7-1.3-3.4-2.5-5.2-3.7c-3.5-2.4-7.1-4.7-10.9-6.8c-7.5-4.3-15.5-8.1-23.8-11.3
				c-4.2-1.6-8.5-2.9-12.8-4.1c-4.4-1.2-8.8-2.2-13.4-3c-9.1-1.6-18.4-2.3-27.8-2.1c-4.7,0.1-9.5,0.4-14.2,1
				c-4.7,0.6-9.5,1.4-14.2,2.5c-18.9,4.2-37.2,12.4-53.7,23.7c-16.6,11.3-31.4,25.6-44.1,41.9c-12.7,16.2-23.3,34.4-31.8,53.7
				c-16.9,38.6-25.1,81.4-25.1,124.1c0,42.7,8.3,85.5,25.2,124.1c8.4,19.3,19.1,37.4,31.8,53.6c12.7,16.2,27.5,30.5,44.1,41.8
				c16.6,11.3,34.9,19.4,53.7,23.6c4.7,1.1,9.4,1.9,14.2,2.5c4.7,0.6,9.5,0.9,14.2,1c9.4,0.2,18.7-0.5,27.8-2.1
				c18.1-3.1,35-9.7,50-18.3c3.8-2.1,7.4-4.5,10.9-6.8c1.7-1.2,3.5-2.4,5.2-3.7c0.8-0.6,1.7-1.3,2.5-1.9c0.8-0.6,1.6-1.3,2.5-1.9
				c6.6-5.2,12.6-10.7,18.2-16.4c11.2-11.4,20.6-23.7,28.5-36c7.9-12.3,14.3-24.7,19.4-36.6c5.2-12,9.2-23.5,12.3-34.3
				c1.6-5.4,2.9-10.7,4.1-15.7c1.1-5,2.2-9.9,3-14.5c1.7-9.2,2.8-17.5,3.5-24.7c0.7-7.2,1.2-13.4,1.4-18.4c0.1-2.5,0.2-4.7,0.2-6.6
				c0.1-1.9,0.1-3.5,0.1-4.8C505.7,310.4,505.8,309.1,505.8,309.1L505.8,309.1z"/>
		</g>
		<g>
			<path fill="#FFFFFF" d="M97.6,210.9c0,0,7.1,0,19.6-0.1c12.5-0.1,30.3-0.2,51.7-0.3c21.4-0.1,46.3-0.1,73.1-0.2
				c26.7,0,55.3-0.1,83.8-0.1c28.5,0,57,0.1,83.8,0.1c13.4,0,26.3,0.1,38.5,0.1c12.3,0,23.8,0.1,34.5,0.1
				c10.7,0.1,20.5,0.1,29.2,0.2c8.7,0.1,16.3,0.1,22.5,0.2c12.5,0.1,19.6,0.1,19.6,0.1c0.1,0,0.1,0.1,0.1,0.1c0,0.1-0.1,0.1-0.1,0.1
				c0,0-7.1,0.1-19.6,0.1c-6.2,0-13.8,0.1-22.5,0.2c-8.7,0-18.5,0.1-29.2,0.2c-10.7,0-22.3,0.1-34.5,0.1c-12.3,0-25.2,0.1-38.5,0.1
				c-26.7,0-55.3,0.1-83.8,0.1c-28.5,0-57-0.1-83.8-0.1c-26.7-0.1-51.7-0.2-73.1-0.2c-21.4-0.1-39.2-0.2-51.7-0.3
				c-12.5-0.1-19.6-0.1-19.6-0.1c-0.1,0-0.2-0.1-0.2-0.2C97.4,211,97.5,210.9,97.6,210.9z"/>
		</g>
		<g>
			<path fill="#FFFFFF" d="M163.8,115.4c0,0,5.1-0.1,13.9-0.2c8.9-0.1,21.5-0.2,36.7-0.3c7.6,0,15.8-0.1,24.5-0.1
				c8.7,0,17.9-0.1,27.4-0.1c19,0,39.2-0.1,59.5-0.1c20.2,0,40.5,0.1,59.5,0.1c9.5,0,18.7,0.1,27.4,0.1c8.7,0,16.9,0.1,24.5,0.1
				c15.2,0.1,27.8,0.2,36.7,0.3c8.9,0.1,13.9,0.2,13.9,0.2c0.1,0,0.1,0.1,0.1,0.1c0,0.1-0.1,0.1-0.1,0.1c0,0-5.1,0.1-13.9,0.2
				c-8.9,0.1-21.5,0.2-36.7,0.3c-7.6,0-15.8,0.1-24.5,0.1c-8.7,0-17.9,0.1-27.4,0.1c-19,0-39.2,0.1-59.5,0.1
				c-20.2,0-40.5-0.1-59.5-0.1c-9.5,0-18.7-0.1-27.4-0.1c-8.7,0-16.9-0.1-24.5-0.1c-15.2-0.1-27.8-0.2-36.7-0.3
				c-8.9-0.1-13.9-0.2-13.9-0.2c-0.1,0-0.2-0.1-0.2-0.2C163.6,115.4,163.7,115.4,163.8,115.4z"/>
		</g>
		<g>
			<path fill="#FFFFFF" d="M77.8,306.4c0,0,31-0.2,77.5-0.4c23.2-0.1,50.4-0.1,79.4-0.2c29.1,0,60.1-0.1,91.1-0.1
				c31,0,62,0.1,91.1,0.1c29.1,0.1,56.2,0.2,79.4,0.3c46.5,0.3,77.5,0.5,77.5,0.5c0.1,0,0.1,0.1,0.1,0.1c0,0.1-0.1,0.1-0.1,0.1
				c0,0-31,0.2-77.5,0.5c-23.2,0.1-50.4,0.2-79.4,0.3c-29.1,0-60.1,0.1-91.1,0.1c-31,0-62-0.1-91.1-0.1c-29.1-0.1-56.2-0.2-79.4-0.2
				c-46.5-0.3-77.5-0.4-77.5-0.4c-0.1,0-0.2-0.1-0.2-0.2C77.6,306.5,77.7,306.4,77.8,306.4z"/>
		</g>
		<g>
			<path fill="#FFFFFF" d="M97.6,402c0,0,7.1,0,19.6-0.1c12.5-0.1,30.3-0.2,51.7-0.3c21.4-0.1,46.3-0.1,73.1-0.2
				c26.7,0,55.3-0.1,83.8-0.1c28.5,0,57,0.1,83.8,0.1c13.4,0,26.3,0.1,38.5,0.1c12.3,0,23.8,0.1,34.5,0.1
				c10.7,0.1,20.5,0.1,29.2,0.2c8.7,0.1,16.3,0.1,22.5,0.2c12.5,0.1,19.6,0.1,19.6,0.1c0.1,0,0.1,0.1,0.1,0.1c0,0.1-0.1,0.1-0.1,0.1
				c0,0-7.1,0.1-19.6,0.1c-6.2,0-13.8,0.1-22.5,0.2c-8.7,0-18.5,0.1-29.2,0.2c-10.7,0-22.3,0.1-34.5,0.1c-12.3,0-25.2,0.1-38.5,0.1
				c-26.7,0-55.3,0.1-83.8,0.1c-28.5,0-57-0.1-83.8-0.1c-26.7-0.1-51.7-0.2-73.1-0.2c-21.4-0.1-39.2-0.2-51.7-0.3
				c-12.5-0.1-19.6-0.1-19.6-0.1c-0.1,0-0.2-0.1-0.2-0.2C97.4,402,97.5,402,97.6,402z"/>
		</g>
		<g>
			<path fill="#FFFFFF" d="M495.9,498.4H172c-0.4,0-0.7-0.3-0.7-0.7s0.3-0.7,0.7-0.7h324c0.4,0,0.7,0.3,0.7,0.7
				S496.3,498.4,495.9,498.4z"/>
		</g>
	</g>
</g>
<path fill="#C0CFEB" d="M198.7,111c1.3,21.1-16,38.5-37.1,37.1c-16.6-1-31.5-16-32.6-32.6c-1.3-21.1,16-38.5,37.1-37.1
	C182.7,79.5,197.7,94.5,198.7,111z"/>
<path opacity="0.78" fill="#FFFFFF" d="M131.7,112.3C131.7,112.3,131.7,112.3,131.7,112.3c-0.4,0-0.7-0.4-0.7-0.8
	c0.1-1.4,0.2-2.8,0.5-4.1c0.1-0.4,0.4-0.6,0.8-0.6c0.4,0.1,0.6,0.4,0.6,0.8c-0.2,1.3-0.4,2.6-0.5,4
	C132.4,112,132.1,112.3,131.7,112.3z"/>
<path opacity="0.78" fill="#FFFFFF" d="M135.1,99.5c-0.1,0-0.2,0-0.3-0.1c-0.4-0.2-0.5-0.6-0.3-1c5.6-11.2,16.9-18.1,29.4-18.1
	c2,0,4,0.2,5.9,0.5c0.4,0.1,0.6,0.4,0.6,0.8c-0.1,0.4-0.4,0.6-0.8,0.6c-1.9-0.3-3.8-0.5-5.7-0.5c-12,0-22.8,6.6-28.2,17.3
	C135.6,99.4,135.3,99.5,135.1,99.5z"/>
<path fill="#1A4682" d="M194.1,111.7c1.4,18.2-13.7,33.3-31.9,31.9c-14.3-1.1-25.9-12.7-27.1-27.1c-1.4-18.2,13.7-33.3,31.9-31.9
	C181.4,85.7,193,97.3,194.1,111.7z"/>
<path fill="#C0CFEB" d="M173.7,102.9c0,5-4.1,10.4-9.1,10.4c-5,0-9.1-5.4-9.1-10.4s4.1-8.6,9.1-8.6
	C169.6,94.3,173.7,97.9,173.7,102.9z"/>
<path fill="#C0CFEB" d="M153.4,132.6h22.1c2.3,0,4.4-1.5,5.1-3.7l1.2-3.7c0.9-2.7-0.5-5.7-3.2-6.7c-9-3.3-18.3-2.9-27.9,0.3
	c-2.7,0.9-4.2,3.7-3.4,6.5l0.9,3.4C148.8,131,151,132.6,153.4,132.6z"/>
<path fill="#C0CFEB" d="M144.1,331.4c1.3,21.1-16,38.5-37.1,37.1c-16.6-1-31.5-16-32.6-32.6c-1.3-21.1,16-38.5,37.1-37.1
	C128,299.8,143,314.8,144.1,331.4z"/>
<path opacity="0.78" fill="#FFFFFF" d="M77,332.7C77,332.7,77,332.7,77,332.7c-0.4,0-0.7-0.4-0.7-0.8c0.1-1.4,0.2-2.8,0.5-4.1
	c0.1-0.4,0.4-0.6,0.8-0.6c0.4,0.1,0.6,0.4,0.6,0.8c-0.2,1.3-0.4,2.6-0.5,4C77.7,332.4,77.4,332.7,77,332.7z"/>
<path opacity="0.78" fill="#FFFFFF" d="M80.4,319.9c-0.1,0-0.2,0-0.3-0.1c-0.4-0.2-0.5-0.6-0.3-1c5.6-11.2,16.9-18.1,29.4-18.1
	c2,0,4,0.2,5.9,0.5c0.4,0.1,0.6,0.4,0.6,0.8c-0.1,0.4-0.4,0.6-0.8,0.6c-1.9-0.3-3.8-0.5-5.7-0.5c-12,0-22.8,6.6-28.2,17.3
	C80.9,319.7,80.6,319.9,80.4,319.9z"/>
<path fill="#1A4682" d="M139.4,332c1.4,18.2-13.7,33.3-31.9,31.9c-14.3-1.1-25.9-12.7-27.1-27.1c-1.4-18.2,13.7-33.3,31.9-31.9
	C126.7,306.1,138.3,317.7,139.4,332z"/>
<path fill="#C0CFEB" d="M119,323.2c0,5-4.1,10.4-9.1,10.4c-5,0-9.1-5.4-9.1-10.4c0-5,4.1-8.6,9.1-8.6
	C114.9,314.7,119,318.2,119,323.2z"/>
<path fill="#C0CFEB" d="M98.7,352.9h22.1c2.3,0,4.4-1.5,5.1-3.7l1.2-3.7c0.9-2.7-0.5-5.7-3.2-6.7c-9-3.3-18.3-2.9-27.9,0.3
	c-2.7,0.9-4.2,3.7-3.4,6.5l0.9,3.4C94.2,351.3,96.3,352.9,98.7,352.9z"/>
<path fill="#C0CFEB" d="M208.6,460.1c1.3,21.1-16,38.5-37.1,37.1c-16.6-1-31.5-16-32.6-32.6c-1.3-21.1,16-38.5,37.1-37.1
	C192.5,428.5,207.5,443.5,208.6,460.1z"/>
<path opacity="0.78" fill="#FFFFFF" d="M141.5,461.4C141.5,461.4,141.5,461.4,141.5,461.4c-0.4,0-0.7-0.4-0.7-0.8
	c0.1-1.4,0.2-2.8,0.5-4.1c0.1-0.4,0.4-0.6,0.8-0.6c0.4,0.1,0.6,0.4,0.6,0.8c-0.2,1.3-0.4,2.6-0.5,4
	C142.2,461.1,141.9,461.4,141.5,461.4z"/>
<path opacity="0.78" fill="#FFFFFF" d="M144.9,448.6c-0.1,0-0.2,0-0.3-0.1c-0.4-0.2-0.5-0.6-0.3-1c5.6-11.2,16.9-18.1,29.4-18.1
	c2,0,4,0.2,5.9,0.5c0.4,0.1,0.6,0.4,0.6,0.8c-0.1,0.4-0.4,0.6-0.8,0.6c-1.9-0.3-3.8-0.5-5.7-0.5c-12,0-22.8,6.6-28.2,17.3
	C145.4,448.4,145.1,448.6,144.9,448.6z"/>
<path fill="#1A4682" d="M203.9,460.7c1.4,18.2-13.7,33.3-31.9,31.9c-14.3-1.1-25.9-12.7-27.1-27.1c-1.4-18.2,13.7-33.3,31.9-31.9
	C191.2,434.8,202.8,446.4,203.9,460.7z"/>
<path fill="#C0CFEB" d="M183.5,451.9c0,5-4.1,10.4-9.1,10.4c-5,0-9.1-5.4-9.1-10.4c0-5,4.1-8.6,9.1-8.6
	C179.5,443.4,183.5,446.9,183.5,451.9z"/>
<path fill="#C0CFEB" d="M163.2,481.6h22.1c2.3,0,4.4-1.5,5.1-3.7l1.2-3.7c0.9-2.7-0.5-5.7-3.2-6.7c-9-3.3-18.3-2.9-27.9,0.3
	c-2.7,0.9-4.2,3.7-3.4,6.5l0.9,3.4C158.7,480,160.8,481.6,163.2,481.6z"/>
<g>
	<g>
		<path fill="#FFFFFF" d="M104.6,249.8c-2.1,0-4.1-1.1-5.2-2.9c-6.1-10-13.3-23.3-13.3-29.3c0-9.4,8.3-17.1,18.5-17.1
			c10.2,0,18.5,7.6,18.5,17.1c0,6-7.2,19.2-13.3,29.3C108.7,248.7,106.7,249.8,104.6,249.8z M104.6,203.2c-8.7,0-15.8,6.5-15.8,14.4
			c0,4.1,4.7,14.3,12.9,27.9c0.6,1,1.7,1.6,2.9,1.6c1.2,0,2.3-0.6,2.9-1.6c8.2-13.6,12.9-23.8,12.9-27.9
			C120.4,209.7,113.3,203.2,104.6,203.2z"/>
		<path fill="#FFFFFF" d="M103.2,229.6c-6.3,0-11.5-5.2-11.5-11.5c0-0.7,0.6-1.3,1.3-1.3c0.7,0,1.3,0.6,1.3,1.3c0,4.9,4,8.9,8.9,8.9
			c4.9,0,8.9-4,8.9-8.9c0-4.9-4-8.9-8.9-8.9c-2.8,0-5.4,1.3-7.1,3.6c-0.4,0.6-1.3,0.7-1.8,0.3c-0.6-0.4-0.7-1.3-0.3-1.8
			c2.2-2.9,5.6-4.6,9.2-4.6c6.3,0,11.5,5.2,11.5,11.5S109.5,229.6,103.2,229.6z"/>
	</g>
</g>
<g>
	<g>
		<path fill="#FFFFFF" d="M177.3,311.2c-2.1,0-4.1-1.1-5.2-2.9c-6.1-10-13.3-23.3-13.3-29.3c0-9.4,8.3-17.1,18.5-17.1
			c10.2,0,18.5,7.6,18.5,17.1c0,6-7.2,19.2-13.3,29.3C181.4,310.1,179.4,311.2,177.3,311.2z M177.3,264.6c-8.7,0-15.8,6.5-15.8,14.4
			c0,4.1,4.7,14.3,12.9,27.9c0.6,1,1.7,1.6,2.9,1.6c1.2,0,2.3-0.6,2.9-1.6c8.2-13.6,12.9-23.8,12.9-27.9
			C193.2,271.1,186.1,264.6,177.3,264.6z"/>
		<path fill="#FFFFFF" d="M175.9,291c-6.3,0-11.5-5.2-11.5-11.5c0-0.7,0.6-1.3,1.3-1.3c0.7,0,1.3,0.6,1.3,1.3c0,4.9,4,8.9,8.9,8.9
			c4.9,0,8.9-4,8.9-8.9c0-4.9-4-8.9-8.9-8.9c-2.8,0-5.4,1.3-7.1,3.6c-0.4,0.6-1.3,0.7-1.8,0.3c-0.6-0.4-0.7-1.3-0.3-1.8
			c2.2-2.9,5.6-4.6,9.2-4.6c6.3,0,11.5,5.2,11.5,11.5C187.4,285.8,182.2,291,175.9,291z"/>
	</g>
</g>
<g>
	<g>
		<path fill="#FFFFFF" d="M166.9,156.2c-0.1,0-0.2,0-0.3-0.1c-0.5-0.2-0.7-0.7-0.5-1.1l1-2.7c0.2-0.5,0.7-0.7,1.1-0.5
			c0.5,0.2,0.7,0.7,0.5,1.1l-1,2.7C167.6,156,167.3,156.2,166.9,156.2z"/>
	</g>
	<g>
		<path fill="#FFFFFF" d="M159.7,176.3c-0.1,0-0.2,0-0.3-0.1c-0.5-0.2-0.7-0.7-0.5-1.1l1.8-5c0.2-0.5,0.7-0.7,1.1-0.5
			c0.5,0.2,0.7,0.7,0.5,1.1l-1.8,5C160.4,176,160,176.3,159.7,176.3z M163.3,166.2c-0.1,0-0.2,0-0.3-0.1c-0.5-0.2-0.7-0.7-0.5-1.1
			l1.8-5c0.2-0.5,0.7-0.7,1.1-0.5c0.5,0.2,0.7,0.7,0.5,1.1l-1.8,5C164,166,163.6,166.2,163.3,166.2z"/>
	</g>
	<g>
		<path fill="#FFFFFF" d="M158.3,186.4c-0.3,0-0.6-0.2-0.8-0.4l-1.4-2.5c-0.1-0.2-0.2-0.5-0.1-0.8l1-2.7c0.2-0.5,0.7-0.7,1.1-0.5
			c0.5,0.2,0.7,0.7,0.5,1.1l-0.8,2.3l1.2,2.1c0.3,0.4,0.1,1-0.3,1.2C158.6,186.4,158.5,186.4,158.3,186.4z"/>
	</g>
	<g>
		<path fill="#FFFFFF" d="M168.9,204.4c-0.3,0-0.6-0.2-0.8-0.4l-2.6-4.5c-0.3-0.4-0.1-1,0.3-1.2c0.4-0.2,1-0.1,1.2,0.3l2.6,4.5
			c0.3,0.4,0.1,1-0.3,1.2C169.2,204.4,169.1,204.4,168.9,204.4z M163.6,195.4c-0.3,0-0.6-0.2-0.8-0.4l-2.6-4.5
			c-0.3-0.4-0.1-1,0.3-1.2c0.4-0.3,1-0.1,1.2,0.3l2.6,4.5c0.3,0.4,0.1,1-0.3,1.2C163.9,195.4,163.8,195.4,163.6,195.4z"/>
	</g>
	<g>
		<path fill="#FFFFFF" d="M173,211.4c-0.3,0-0.6-0.2-0.8-0.4l-1.4-2.5c-0.3-0.4-0.1-1,0.3-1.2c0.4-0.3,1-0.1,1.2,0.3l1.4,2.5
			c0.3,0.4,0.1,1-0.3,1.2C173.3,211.3,173.2,211.4,173,211.4z"/>
	</g>
</g>
<g>
	<g>
		<path fill="#FFFFFF" d="M216.1,407.6c-0.2,0-0.3,0-0.5-0.1c-0.4-0.3-0.5-0.8-0.3-1.2l1.5-2.4c0.3-0.4,0.8-0.5,1.2-0.3
			c0.4,0.3,0.5,0.8,0.3,1.2l-1.5,2.4C216.7,407.5,216.4,407.6,216.1,407.6z"/>
	</g>
	<g>
		<path fill="#FFFFFF" d="M205.3,425.1c-0.2,0-0.3,0-0.5-0.1c-0.4-0.3-0.5-0.8-0.3-1.2l2.7-4.4c0.3-0.4,0.8-0.5,1.2-0.3
			c0.4,0.3,0.5,0.8,0.3,1.2l-2.7,4.4C205.9,425,205.6,425.1,205.3,425.1z M210.7,416.4c-0.2,0-0.3,0-0.5-0.1
			c-0.4-0.3-0.5-0.8-0.3-1.2l2.7-4.4c0.3-0.4,0.8-0.5,1.2-0.3c0.4,0.3,0.5,0.8,0.3,1.2l-2.7,4.4C211.3,416.2,211,416.4,210.7,416.4z
			"/>
	</g>
	<g>
		<path fill="#FFFFFF" d="M201.1,431.9c-0.2,0-0.3,0-0.5-0.1c-0.4-0.3-0.5-0.8-0.3-1.2l1.5-2.4c0.3-0.4,0.8-0.5,1.2-0.3
			c0.4,0.3,0.5,0.8,0.3,1.2l-1.5,2.4C201.7,431.8,201.4,431.9,201.1,431.9z"/>
	</g>
</g>
<g>
	<g>
		<path fill="#FFFFFF" d="M154,322.7h-2.9c-0.6,0-1.1-0.5-1.1-1.1c0-0.6,0.5-1.1,1.1-1.1h2.9c0.6,0,1.1,0.5,1.1,1.1
			C155.1,322.3,154.6,322.7,154,322.7z"/>
	</g>
	<g>
		<path fill="#FFFFFF" d="M174,322.7h-5c-0.6,0-1.1-0.5-1.1-1.1c0-0.6,0.5-1.1,1.1-1.1h5c0.6,0,1.1,0.5,1.1,1.1
			C175.1,322.3,174.6,322.7,174,322.7z M164,322.7h-5c-0.6,0-1.1-0.5-1.1-1.1c0-0.6,0.5-1.1,1.1-1.1h5c0.6,0,1.1,0.5,1.1,1.1
			C165.1,322.3,164.6,322.7,164,322.7z"/>
	</g>
	<g>
		<path fill="#FFFFFF" d="M183.6,325.1c-0.3,0-0.7-0.2-0.9-0.4l-1.3-1.9H179c-0.6,0-1.1-0.5-1.1-1.1c0-0.6,0.5-1.1,1.1-1.1h2.9
			c0.3,0,0.7,0.2,0.9,0.4l1.7,2.3c0.3,0.5,0.2,1.1-0.2,1.5C184,325,183.8,325.1,183.6,325.1z"/>
	</g>
	<g>
		<path fill="#FFFFFF" d="M198.4,345.5c-0.3,0-0.6-0.1-0.7-0.4L194,340c-0.3-0.4-0.2-1,0.2-1.2c0.4-0.3,1-0.2,1.2,0.2l3.7,5.2
			c0.3,0.4,0.2,1-0.2,1.2C198.8,345.5,198.6,345.5,198.4,345.5z M191,335.2c-0.3,0-0.6-0.1-0.7-0.4l-3.7-5.2c-0.3-0.4-0.2-1,0.2-1.2
			c0.4-0.3,1-0.2,1.2,0.2l3.7,5.2c0.3,0.4,0.2,1-0.2,1.2C191.4,335.1,191.2,335.2,191,335.2z"/>
	</g>
	<g>
		<path fill="#FFFFFF" d="M203.8,353c-0.3,0-0.6-0.1-0.7-0.4l-1.7-2.3c-0.3-0.4-0.2-1,0.2-1.2c0.4-0.3,1-0.2,1.2,0.2l1.7,2.3
			c0.3,0.4,0.2,1-0.2,1.2C204.2,353,204,353,203.8,353z"/>
	</g>
</g>
<g>
	<path fill="#C0CFEB" d="M426,489.9c0,0,33.6-167.7,114.6-260.9c5.4-6.3,16-4.2,18.6,3.7C576.6,285.3,612.8,445.3,426,489.9z"/>
	<path opacity="0.5" fill="#FFFFFF" d="M442.7,478.7c-0.4,0.4,0.2,1,0.6,0.7c16.9-13,81.8-76.3,101.3-199.5c0.1-0.4-0.5-0.5-0.6-0.1
		C536.8,308.4,506.8,414.1,442.7,478.7z"/>
</g>
<g>
	<path fill="#98B1DC" d="M638.7,319.5c0.9-0.7,0.3-2.3-0.8-2.1c-17.3,2.7-79.7,17-122.1,84.1c-38.7,61.4-56.5,112.1-62.4,131.3
		c-1.2,3.8,1.8,7.8,5.5,7.3c21.4-3.2,80.7-15.5,102.6-57.4C587.6,432.6,596.6,351.9,638.7,319.5z"/>
	<path opacity="0.5" fill="#FFFFFF" d="M590.2,355.2c0,0-54.9,25.9-132.2,178.1C458,533.2,543.3,385.4,590.2,355.2z"/>
</g>
<path fill="#1A4682" d="M498.5,572.9c-0.1,9.6-8.3,17.4-18.4,17.4l-243.7,0.5c-10.2,0-18.6-7.8-18.8-17.4l-11.4-454
	c-0.3-10.8,8.3-19.5,19-19.5l258.7,1.2c10.7,0.1,19.3,8.8,19.2,19.6L498.5,572.9z"/>
<path fill="#C0CFEB" d="M476.5,147c0.1-10.4-8.4-18.8-19-18.9l-205.3-0.9c-10.6,0-19.1,8.4-18.9,18.8l8.4,386
	c0.2,9.5,8.6,17.1,18.7,17.1l195.1-0.3c10,0,18.2-7.7,18.3-17.1L476.5,147z"/>
<linearGradient id="SVGID_1_" gradientUnits="userSpaceOnUse" x1="356.58" y1="41.7595" x2="355.3345" y2="117.7336">
	<stop  offset="0" style="stop-color:#7E5DA7"/>
	<stop  offset="0.9964" style="stop-color:#2A3071"/>
</linearGradient>
<path fill="url(#SVGID_1_)" d="M385.8,113.5c0,2-1.6,3.6-3.6,3.6l-53.4-0.2c-2,0-3.7-1.6-3.7-3.7l0,0c0-2,1.6-3.6,3.6-3.6l53.5,0.2
	C384.1,109.8,385.8,111.4,385.8,113.5L385.8,113.5z"/>
<g>
	<path fill="#F7D26B" d="M225.8,127.2c-1.3,0-2.6,0.5-3.3,1.6c-15,23.7-30.1,48.3-45.1,70.9c14.8,0,29.5,0,44.3,0
		c11.6-22.7,23.1-47.9,34.7-72.6C246.2,127.2,236,127.2,225.8,127.2z"/>
	<path fill="#C0CFEB" d="M266,200.4c-14.8,0-29.5,0-44.3,0c11.6-24.3,23.1-48.6,34.7-73c10.9,0,21.8,0,32.7,0
		C281.4,151.7,273.7,176,266,200.4z"/>
	<g>
		<g>
			<path fill="#F7D26B" d="M310.3,200.4c-14.8,0-29.5,0-44.3,0c7.7-24.3,15.4-48.6,23.1-73c10.9,0,21.8,0,32.7,0
				C318,151.7,314.1,176,310.3,200.4z"/>
		</g>
	</g>
	<path fill="#C0CFEB" d="M354.6,200.4c-14.8,0-29.5,0-44.3,0c3.9-24.3,7.7-48.6,11.6-73c10.9,0,21.8,0,32.7,0
		C354.6,151.7,354.6,176,354.6,200.4z"/>
	<g>
		<g>
			<path fill="#F7D26B" d="M398.9,200.4c-14.8,0-29.5,0-44.3,0c0-24.3,0-48.6,0-73c10.9,0,21.8,0,32.7,0
				C391.2,151.7,395.1,176,398.9,200.4z"/>
		</g>
	</g>
	<path fill="#C0CFEB" d="M443.2,200.4c-14.8,0-29.5,0-44.3,0c-3.9-24.3-7.7-48.6-11.6-73c10.9,0,21.8,0,32.7,0
		C427.8,151.7,435.5,176,443.2,200.4z"/>
	<g>
		<g>
			<path fill="#F7D26B" d="M487.5,200.4c-14.8,0-29.5,0-44.3,0c-7.7-24.3-15.4-48.6-23.1-73c10.9,0,21.8,0,32.7,0
				C464.4,151.7,476,176,487.5,200.4z"/>
		</g>
	</g>
	<path fill="#C0CFEB" d="M486.7,128.9c-0.7-1.1-2-1.6-3.3-1.6c-10.2,0-20.4,0-30.6,0c11.6,24.6,23.1,49.9,34.7,72.6
		c14.8,0,29.5,0,44.3,0C516.8,177.1,501.8,152.6,486.7,128.9z"/>
</g>
<path fill="#F7D26B" d="M177.3,199.8v12.6c0,10.5,10.7,18.5,22.9,18.5h0.5c12.2,0,22-7.9,22-18.5v-12.6H177.3z"/>
<path fill="#98B1DC" d="M222.1,199.8v12.6c0,10.5,9.4,18.5,21.4,18.5h0.5c12,0,21.5-7.9,21.5-18.5v-12.6H222.1z"/>
<path fill="#F7D26B" d="M265.5,199.8v12.6c0,10.5,10.4,18.5,22.6,18.5h0.5c12.2,0,21.6-7.9,21.6-18.5v-12.6H265.5z"/>
<path fill="#98B1DC" d="M310.2,199.8v12.6c0,10.5,9.8,18.5,21.8,18.5h0.5c12,0,21.8-7.9,21.8-18.5v-12.6H310.2z"/>
<path fill="#F7D26B" d="M354.3,199.8v12.6c0,10.5,10.2,18.5,22.4,18.5h0.5c12.2,0,21.2-7.9,21.2-18.5v-12.6H354.3z"/>
<path fill="#98B1DC" d="M398.4,199.8v12.6c0,10.5,10.2,18.5,22.2,18.5h0.5c12,0,22-7.9,22-18.5v-12.6H398.4z"/>
<path fill="#F7D26B" d="M443.1,199.8v12.6c0,10.5,10,18.5,22.2,18.5h0.5c12.2,0,22.1-7.9,22.1-18.5v-12.6H443.1z"/>
<path fill="#98B1DC" d="M487.8,199.8v12.6c0,10.5,9.3,18.5,21.3,18.5h0.5c12,0,21.6-7.9,21.6-18.5v-12.6H487.8z"/>
<path fill="#F0C11B" d="M425.6,455c0,14.7-11.9,26.6-26.6,26.6h-88.6c-14.7,0-26.6-11.9-26.6-26.6v-0.5c0-14.7,11.9-26.6,26.6-26.6
	h88.6c14.7,0,26.6,11.9,26.6,26.6V455z"/>
<g>
	<path fill="#FFFFFF" d="M424.4,287.1c-0.8-1-2.1-1.4-3.5-1.4l-124.8,2.6l-3.2-10c-0.4-1.4-1.8-2.3-3.2-2.2l-17.1,0.5
		c-1.8,0-3.3,1.3-3.3,3.2c0,1.8,1.5,3,3.3,3l14.6-0.3l26.5,84.7c0.4,1.4,1.8,2.4,3.3,2.4l87.6,1.2c2.1,0,3.7-1.3,3.7-3.2
		c0-1.9-1.7-3.3-3.7-3.3l-85-0.9l-6.8-22l93.5,0.1c1.9,0,3.6-1.2,4.1-3l14.7-47.7C425.4,289.4,425.2,288.1,424.4,287.1z"/>
	<path fill="#FFFFFF" d="M329.8,374.6c-7.2-0.1-13,5.5-13,12.5c0,7,5.8,12.9,13,13c7.3,0.2,13.2-5.4,13.2-12.5
		C343,380.6,337.1,374.7,329.8,374.6z M329.8,393.4c-3.4-0.1-6.1-2.8-6.1-6.1c0-3.3,2.7-5.9,6.1-5.8c3.4,0.1,6.1,2.8,6.1,6.1
		C335.9,390.8,333.2,393.4,329.8,393.4z"/>
	<path fill="#FFFFFF" d="M388.2,375.5c-7.6-0.1-13.7,5.6-13.7,12.8c0,7.2,6.1,13.2,13.7,13.4c7.6,0.2,13.8-5.5,13.8-12.8
		C402,381.6,395.8,375.6,388.2,375.5z M388.2,394.7c-3.5-0.1-6.4-2.9-6.4-6.2c0-3.4,2.9-6,6.4-6c3.5,0.1,6.4,2.9,6.4,6.2
		C394.6,392.1,391.7,394.8,388.2,394.7z"/>
</g>
<path fill="#191819" d="M491,430.2c-0.1,0.3-9.3,7-9.3,7s2,14.4,10.2,20.1c9,6.3,21.7-5.2,21.7-5.2s10.1,2.4,15.5-18.6
	c1.2-4.8-5.9-5.2-14.5-4.3C503.5,430.3,491,430.2,491,430.2z"/>
<path fill="#266EA3" d="M473.9,479.4c3.6-2.5,7.5-4.3,11.7-5.4c1.6-0.4,10.1,2,15.3,1.9c7.2-0.2,14.5-3.4,20.5-2
	c5.9,1.5,10.7,3.4,13.5,5.4c8.3,5.9,13.2,17,16.2,27.9c-5.6,5.8-12.8,8.4-12.8,8.4l-1.3,53.2l-31.5,16.1l-35.9-18l1.3-52
	c0,0-11.4-5.3-12.2-7.2C457.8,505.7,463.9,486.3,473.9,479.4z"/>
<linearGradient id="SVGID_2_" gradientUnits="userSpaceOnUse" x1="451.3766" y1="495.9691" x2="511.2099" y2="640.5013">
	<stop  offset="0" style="stop-color:#A22C25"/>
	<stop  offset="1" style="stop-color:#C1423D"/>
</linearGradient>
<path fill="url(#SVGID_2_)" d="M459.2,507.4c0,0-15.3,42.4,19.6,59.8c7.2-1,4.5-13,4.5-13s-15.2-3.4-10.6-38.7
	C468.4,512,459.2,507.4,459.2,507.4z"/>
<linearGradient id="SVGID_3_" gradientUnits="userSpaceOnUse" x1="-7742.521" y1="495.6584" x2="-7682.688" y2="640.1907" gradientTransform="matrix(-1 0 0 1 -7185.0742 0)">
	<stop  offset="0" style="stop-color:#A22C25"/>
	<stop  offset="1" style="stop-color:#C1423D"/>
</linearGradient>
<path fill="url(#SVGID_3_)" d="M550.4,507.4c0,0,10.5,44.3-19.6,59.8c-7.2-1-4.5-13-4.5-13s12.2-6,10.6-38.7
	C541.1,512,550.4,507.4,550.4,507.4z"/>
<path fill="#1E417C" d="M534.2,570.2h-60.9c-2.2,0-4.1-1.8-4.1-4.1v-38.5c0-2.2,1.8-4.1,4.1-4.1h60.9c2.2,0,4.1,1.8,4.1,4.1v38.5
	C538.3,568.3,536.4,570.2,534.2,570.2z"/>
<g>
	<path fill="#266EA3" d="M568.5,584c-7.9-1.8-26.2-0.8-26.2-0.8l-0.7,2l-1.2,10c0,0,17.4,3.1,26,3.1c0.9,0,1.7-0.1,2.4-0.4
		c0.3-0.2,0.5-0.5,0.8-0.7C573.2,593.2,572.1,587.4,568.5,584z"/>
	<linearGradient id="SVGID_4_" gradientUnits="userSpaceOnUse" x1="562.017" y1="531.4888" x2="527.5033" y2="624.9728">
		<stop  offset="0" style="stop-color:#A22C25"/>
		<stop  offset="1" style="stop-color:#C1423D"/>
	</linearGradient>
	<path fill="url(#SVGID_4_)" d="M537.1,582.6l3.1,0.1c1.7,0.1,3.2,0.9,4.3,2.2c1.1,1.4,1.7,3.2,1.6,5c-0.1,1.5-0.7,2.8-1.7,3.8
		c-1,1-2.3,1.5-3.6,1.4l-4.7-0.3L537.1,582.6z"/>
</g>
<g>
	<path fill="#266EA3" d="M433.1,583c7.9-1.6,26.2,0,26.2,0l0.7,2l1,10c0,0-17.5,2.6-26,2.3c-0.9,0-1.7-0.2-2.4-0.4
		c-0.3-0.2-0.5-0.5-0.7-0.8C428.3,592.1,429.5,586.3,433.1,583z"/>
	<linearGradient id="SVGID_5_" gradientUnits="userSpaceOnUse" x1="492.868" y1="503.3172" x2="458.3362" y2="596.8505">
		<stop  offset="0" style="stop-color:#A22C25"/>
		<stop  offset="1" style="stop-color:#C1423D"/>
	</linearGradient>
	<path fill="url(#SVGID_5_)" d="M464.6,582.6l-3.1,0c-1.7,0-3.2,0.8-4.4,2.1c-1.2,1.3-1.8,3.1-1.7,5c0,1.5,0.6,2.9,1.6,3.9
		c1,1,2.3,1.5,3.6,1.5l4.7-0.2L464.6,582.6z"/>
</g>
<path fill="#1E619A" d="M570.7,552.6c-3.6-8.2-12.3-9.6-19.8-5.7c-0.1,0.2-47.4,24.4-89,35c1.2,3.8,1.8,7.9,1.9,11.9
	c0,0.9,0,1.8,0,2.6c31.9-1.6,66.6-12.3,96.4-21.7C569.5,571.8,574.7,561.8,570.7,552.6z"/>
<path fill="#266EA3" d="M537.4,594.4c-0.1-4.6,0.8-8.9,2.7-12.9c0.1-0.2,0.1-0.4,0.2-0.5c-2.4-0.7-5.5-1.7-9.5-3.1
	c-29.6-10.1-52.2-20.3-73.7-32.1c-8.4-4.6-17.9-1.5-20.6,8.4c-2.4,8.8,2.9,16.4,10.8,19c23.8,7.9,11.4,5.7,19.2,8.2
	c20.9,6.5,46.9,12.4,70.9,14C537.4,595.1,537.4,594.8,537.4,594.4z"/>
<linearGradient id="SVGID_6_" gradientUnits="userSpaceOnUse" x1="503.9016" y1="507.9027" x2="503.1055" y2="438.6355">
	<stop  offset="0" style="stop-color:#A22C25"/>
	<stop  offset="1" style="stop-color:#C1423D"/>
</linearGradient>
<path fill="url(#SVGID_6_)" d="M485.6,473.9c0,0,3.2,13.8,18.6,13.5c15.7-0.3,17.1-13.5,17.1-13.5l-10.3-2.2l-0.9-11.5l-15.5,1.1
	l-0.3,10.9L485.6,473.9z"/>
<linearGradient id="SVGID_7_" gradientUnits="userSpaceOnUse" x1="616.0649" y1="-212.2153" x2="618.5449" y2="-272.4898" gradientTransform="matrix(0.987 0.1608 -0.1608 0.987 -140.5869 579.846)">
	<stop  offset="0" style="stop-color:#A22C25"/>
	<stop  offset="1" style="stop-color:#C1423D"/>
</linearGradient>
<path fill="url(#SVGID_7_)" d="M497,427.8c0,0-17.7,34.3,3.3,42.6c14.8,5.9,24.1-22.8,21.3-30.6c-4.3-12-7.1-10.6-7.1-10.6
	L497,427.8z"/>
<path fill="#191819" d="M525.9,424.7c8.8,2.4,1.3,21.4-11.9,16.9c-13.2-4.5-18.4-4.4-20.4-0.8c-2.1,3.6-2.5,16.5-7,10.1
	c-4.9-7-7.6-20.9-1.6-25.4c5.4-4,6.6-10.3,13-10.1c8.5,0.3,15.1-3.5,19-0.8C521.4,417.7,519.4,422.9,525.9,424.7z"/>
<linearGradient id="SVGID_8_" gradientUnits="userSpaceOnUse" x1="204.5126" y1="943.4093" x2="208.399" y2="848.9534" gradientTransform="matrix(0.9911 -0.1329 0.1329 0.9911 165.4763 -430.532)">
	<stop  offset="0" style="stop-color:#A22C25"/>
	<stop  offset="1" style="stop-color:#C1423D"/>
</linearGradient>
<path fill="url(#SVGID_8_)" d="M492.8,443.7c0,0-3.8-4.1-4.4,0.8c-0.6,4.9,1.3,11.2,3.6,7.8C494.3,448.8,492.8,443.7,492.8,443.7z"
	/>
<path fill="#98B1DC" d="M507.8,536.2c0.4,2.5-1,4.7-3.4,5.1c-2.5,0.4-4.8-1.3-5.1-3.8c-0.4-2.5,0.8-4.9,3.2-5.3
	C504.9,531.8,507.4,533.7,507.8,536.2z"/>
<text transform="matrix(1 0 0 1 301.801 465.2429)" fill="#FFFFFF" font-family="'MontserratSubrayada-Bold'" font-size="28.9739">ACHAT</text>
</svg>
