<?xml version="1.0" encoding="utf-8"?>
<!-- Generator: Adobe Illustrator 18.1.1, SVG Export Plug-In . SVG Version: 6.00 Build 0)  -->
<svg version="1.1" id="Layer_1" xmlns="http://www.w3.org/2000/svg" xmlns:xlink="http://www.w3.org/1999/xlink" x="0px" y="0px"
	 viewBox="0 0 692 626" enable-background="new 0 0 692 626" xml:space="preserve">
<linearGradient id="SVGID_1_" gradientUnits="userSpaceOnUse" x1="15.6982" y1="298.1763" x2="663.7317" y2="298.1763">
	<stop  offset="0" style="stop-color:#DBE2F3"/>
	<stop  offset="1" style="stop-color:#EAEFF8"/>
</linearGradient>
<path fill="url(#SVGID_1_)" d="M646,201c6.8-16.9,12-34.3,9.2-53.1c-2.8-18.9-15-35.9-31.4-46C596.2,84.8,552.3,86,520.9,89.6
	c-37.3,4.3-73.7,15.5-106.7,33.2c-21.3,11.4-42.8,24.9-67.1,28.3c-26.3,3.8-53.2-0.3-79-5.6c-27.5-5.7-48.6-20-78.1-13
	c-0.1,0-0.1,0-0.2,0c-15,3.6-28.7,12.2-38.6,23.9c-10.8,12.7-12.5,20.6-31,22.3c-26.2,2.4-57.2-14.8-81,2.2
	c-16.7,11.9-24.4,33.3-23.3,53.6c1.1,20.3,10,39.4,21.3,56.4c5.3,8,11.2,15.8,14.3,24.9c10.2,29.5-17.6,44.1-27.5,68
	C4.2,431,38.7,472.6,83.9,487c30.6,9.7,68.6,10.1,100.7,15c15.2,2.3,30.4,4.7,45.7,5.9c24.7,1.9,49.6,0.9,74.4-0.2
	c48.2-2.1,96.4-4.3,144.6-6.7c24.6-1.2,49.2-2.4,73.8-3.6c26-1.3,53.6-5.8,78.8-12.1c16.8-4.2,34.4-9.4,46.1-22
	c8.3-8.9,12.7-20.8,14.4-32.8c3.9-26.4-1.9-53.7-11.6-78.4c-9.2-24.1-21.4-47.5-25.2-73.3C621.7,251.3,635.7,226.6,646,201z"/>
<g>
	<path fill="#98B1DC" d="M522.8,180.8c3.2,28.9,14.6,197.8-142,237.1c0,0-36.2-109.3,138-238.8C520.4,177.9,522.6,178.9,522.8,180.8
		z"/>
	<path opacity="0.43" fill="#FFFFFF" d="M508,205.9c-2.4,9.3-5.2,18.5-8,27.6c-2.9,9.1-6,18.2-9.3,27.2c-3.3,9-6.8,17.9-10.5,26.7
		l-1.4,3.3l-1.4,3.3l-1.4,3.3c-0.5,1.1-1,2.2-1.5,3.3l-3,6.5l-3.1,6.5c-1,2.2-2.1,4.3-3.2,6.4c-1.1,2.1-2.1,4.3-3.3,6.4l-3.4,6.4
		l-3.5,6.3l-0.9,1.6l-0.9,1.6l-1.8,3.1l-1.8,3.1c-0.6,1-1.3,2-1.9,3.1c-1.3,2-2.5,4.1-3.8,6.1l-4,6l-1,1.5l-1,1.5l-2.1,2.9l-2.1,2.9
		c-0.7,1-1.4,1.9-2.2,2.9l-2.2,2.9l-1.1,1.4c-0.4,0.5-0.7,1-1.1,1.4l-4.6,5.6c-6.2,7.3-12.8,14.3-20,20.8c-0.3,0.3-0.9,0.3-1.2-0.1
		c-0.3-0.3-0.3-0.9,0.1-1.2l0,0l0,0c7.1-6.4,13.7-13.3,19.9-20.5l4.6-5.5c0.4-0.5,0.7-0.9,1.1-1.4l1.1-1.4l2.2-2.8
		c0.7-1,1.5-1.9,2.2-2.9l2.1-2.9l2.1-2.9l1-1.5l1-1.5l4-6c1.3-2,2.5-4,3.8-6.1c0.6-1,1.3-2,1.9-3l1.8-3.1l1.8-3.1l0.9-1.5l0.9-1.6
		l3.5-6.3l3.4-6.3c1.1-2.1,2.2-4.2,3.3-6.4c1.1-2.1,2.2-4.3,3.2-6.4l3.1-6.5l3-6.5c0.5-1.1,1-2.2,1.5-3.3l1.5-3.3l1.4-3.3l1.4-3.3
		c3.7-8.8,7.3-17.7,10.6-26.6c3.3-9,6.5-18,9.4-27.1c2.9-9.1,5.7-18.3,8.1-27.5l0,0c0-0.2,0.2-0.3,0.4-0.2
		C507.9,205.5,508,205.7,508,205.9z"/>
</g>
<g>
	<path fill="#98B1DC" d="M305,452.8c4.6-1.2,6.4-6.9,3.2-10.4C279.1,410,161.7,285.3,39.6,241c-9.5-3.4-19.5,5-17.6,14.9
		C34.3,320.9,88.8,507.2,305,452.8z"/>
	<path fill="#DDE4F4" d="M290.6,448.1c0.7,0.2,0.4,1.2-0.3,1.1c-25.6-3.8-131.8-32.7-225.1-151.8c-0.3-0.4,0.3-0.9,0.6-0.5
		C90.3,322.9,184.5,417.3,290.6,448.1z"/>
</g>
<g>
	<path fill="#C0CFEB" d="M401.2,464.1c0,0,89.9-204.6,211.8-303.8c8.2-6.7,19.8-1.6,20.4,9C637.5,240,630.5,451,401.2,464.1z"/>
	<path fill="#DDE4F4" d="M424,453.8c-0.6,0.4-0.1,1.3,0.5,1c23.5-12.5,117.7-77.6,177.8-229.1c0.2-0.5-0.5-0.8-0.7-0.3
		C584.5,259.9,517.6,386.8,424,453.8z"/>
</g>
<g>
	<path fill="#C0CFEB" d="M100.3,108.7c-2.1-1.4-4.9,0.1-5,2.6c-2,38.4-4.3,262.6,205.7,302.6C300.9,413.9,340.4,266.7,100.3,108.7z"
		/>
	<path fill="#DDE4F4" d="M117.9,144c3.9,12.3,8.2,24.5,12.8,36.6c4.6,12.1,9.5,24.1,14.8,35.9c10.4,23.7,22,46.9,35,69.2
		c13,22.3,27.5,43.8,44.2,63.5c4.2,4.9,8.5,9.7,13,14.4c4.5,4.7,9.1,9.2,13.9,13.5c9.5,8.7,19.8,16.5,30.8,23.2l0,0
		c0.6,0.4,0.7,1.1,0.4,1.7s-1.1,0.7-1.7,0.4l0,0c-11.1-6.9-21.4-14.8-31-23.6c-4.8-4.4-9.5-8.9-13.9-13.6c-4.5-4.7-8.8-9.5-13-14.5
		c-16.7-19.9-31.2-41.6-44.1-64c-13-22.5-24.4-45.8-34.8-69.5c-5.2-11.9-10-23.9-14.6-36c-4.6-12.1-8.9-24.3-12.7-36.7
		c-0.1-0.3,0.1-0.6,0.3-0.6C117.5,143.6,117.8,143.7,117.9,144L117.9,144z"/>
</g>
<g>
	<g>
		<path fill="#1E417C" d="M535.2,519.4H213.5c-8,0-14.4-6.5-14.4-14.4v-55.7c0-8,6.5-14.4,14.4-14.4h321.7c8,0,14.4,6.5,14.4,14.4
			V505C549.6,513,543.2,519.4,535.2,519.4z"/>
		<path fill="#C0CFEB" d="M521.8,507.6h-31.4c-2.7,0-4.9-2.2-4.9-4.9v-55.4c0-2.7,2.2-4.9,4.9-4.9h31.4c2.7,0,4.9,2.2,4.9,4.9v55.4
			C526.6,505.4,524.5,507.6,521.8,507.6z"/>
		<path fill="#C0CFEB" d="M462.5,509.3H455c-2.2,0-4-1.8-4-4v-57.2c0-2.2,1.8-4,4-4h7.5c2.2,0,4,1.8,4,4v57.2
			C466.4,507.5,464.7,509.3,462.5,509.3z"/>
	</g>
</g>
<g>
	<g>
		<g>
			<path fill="#8193CA" d="M164.4,168.8c0.3-0.1,0.6,0,0.7,0.2c0.2,0.3,0.4,0.6,0.6,0.8c0.2,0.3,0.1,0.7-0.2,0.9
				c-0.3,0.2-0.7,0.1-0.9-0.2c-0.2-0.3-0.4-0.5-0.6-0.8c-0.2-0.3-0.2-0.7,0.1-0.9C164.3,168.9,164.3,168.8,164.4,168.8z"/>
			<path fill="#8193CA" d="M166.8,172.5c0.3-0.1,0.6,0,0.8,0.3c0.3,0.6,0.7,1.2,1,1.9c0.2,0.3,0,0.7-0.3,0.8c-0.3,0.2-0.7,0-0.8-0.3
				c-0.3-0.6-0.6-1.2-0.9-1.8C166.3,173.1,166.4,172.7,166.8,172.5C166.7,172.5,166.8,172.5,166.8,172.5z M169.1,177.4
				c0.3-0.1,0.7,0,0.8,0.4l0.1,0.2c0.2,0.6,0.4,1.2,0.6,1.8c0.1,0.3-0.1,0.7-0.4,0.8c-0.3,0.1-0.7-0.1-0.8-0.4
				c-0.2-0.6-0.4-1.2-0.6-1.7l-0.1-0.2C168.6,177.9,168.8,177.5,169.1,177.4C169.1,177.4,169.1,177.4,169.1,177.4z M170.6,182.6
				C170.6,182.6,170.7,182.6,170.6,182.6c0.4-0.1,0.8,0.1,0.8,0.5c0.1,0.7,0.3,1.4,0.4,2.1c0.1,0.3-0.2,0.7-0.5,0.7
				c-0.3,0.1-0.7-0.2-0.7-0.5c-0.1-0.7-0.2-1.3-0.4-2C170.1,183,170.3,182.7,170.6,182.6z M171.3,188c0.1,0,0.1,0,0.2,0
				c0.3,0,0.6,0.2,0.7,0.6c0,0.7,0.1,1.4,0.1,2.1c0,0.4-0.3,0.6-0.6,0.6c-0.4,0-0.6-0.3-0.6-0.6c0-0.7,0-1.4,0-2
				C170.9,188.3,171.1,188.1,171.3,188z M171.2,193.4c0.1,0,0.2,0,0.3,0c0.3,0,0.6,0.3,0.6,0.7c-0.1,0.7-0.2,1.4-0.3,2.1
				c-0.1,0.3-0.4,0.6-0.7,0.5c-0.3-0.1-0.6-0.4-0.5-0.7c0.1-0.7,0.2-1.3,0.3-2C170.8,193.7,171,193.5,171.2,193.4z M170.2,198.8
				c0.1,0,0.2-0.1,0.4,0c0.3,0.1,0.5,0.4,0.5,0.8c-0.2,0.7-0.4,1.4-0.6,2c-0.1,0.3-0.5,0.5-0.8,0.4c-0.3-0.1-0.5-0.5-0.4-0.8
				c0.2-0.6,0.4-1.3,0.6-2C169.9,199,170,198.9,170.2,198.8z M168.5,203.9c0.1-0.1,0.3-0.1,0.5,0c0.3,0.1,0.5,0.5,0.3,0.8
				c-0.3,0.6-0.6,1.3-0.9,1.9c-0.2,0.3-0.5,0.4-0.9,0.3c-0.3-0.2-0.4-0.5-0.3-0.9c0.3-0.6,0.6-1.2,0.9-1.8
				C168.2,204.1,168.3,204,168.5,203.9z M165.9,208.7c0.2-0.1,0.4-0.1,0.6,0.1c0.3,0.2,0.4,0.6,0.2,0.9c-0.4,0.6-0.8,1.2-1.2,1.7
				c-0.2,0.3-0.6,0.4-0.9,0.1c-0.3-0.2-0.4-0.6-0.1-0.9c0.4-0.5,0.8-1.1,1.1-1.7C165.7,208.9,165.8,208.8,165.9,208.7z M162.7,213.1
				c0.2-0.1,0.5,0,0.6,0.1c0.3,0.2,0.3,0.6,0.1,0.9c-0.5,0.5-0.9,1-1.4,1.5c-0.2,0.3-0.6,0.3-0.9,0c-0.3-0.2-0.3-0.6,0-0.9
				c0.5-0.5,0.9-1,1.4-1.5C162.5,213.2,162.6,213.1,162.7,213.1z M131.5,224.9c0.1,0,0.2,0,0.3,0c0.7,0.1,1.3,0.2,2,0.2
				c0.3,0,0.6,0.3,0.6,0.7c0,0.3-0.3,0.6-0.7,0.6c-0.7,0-1.4-0.1-2.1-0.2c-0.3,0-0.6-0.4-0.5-0.7C131.2,225.2,131.3,225,131.5,224.9
				z M158.8,216.9c0.2-0.1,0.5,0,0.7,0.2c0.2,0.3,0.2,0.7-0.1,0.9c-0.5,0.5-1.1,0.9-1.6,1.3c-0.3,0.2-0.7,0.2-0.9-0.1
				c-0.2-0.3-0.2-0.7,0.1-0.9c0.5-0.4,1.1-0.8,1.6-1.3C158.7,217,158.7,216.9,158.8,216.9z M137,225.2c0.1,0,0.1,0,0.2,0
				c0.7,0,1.4-0.1,2-0.1c0.3,0,0.7,0.2,0.7,0.6c0,0.3-0.2,0.7-0.6,0.7c-0.7,0.1-1.4,0.1-2.1,0.1c-0.4,0-0.6-0.3-0.7-0.6
				C136.5,225.5,136.7,225.3,137,225.2z M154.4,220.1c0.3-0.1,0.6,0,0.8,0.3c0.2,0.3,0.1,0.7-0.2,0.9c-0.6,0.4-1.2,0.7-1.8,1
				c-0.3,0.2-0.7,0-0.9-0.3c-0.2-0.3,0-0.7,0.3-0.9c0.6-0.3,1.2-0.7,1.8-1C154.3,220.1,154.4,220.1,154.4,220.1z M142.4,224.6
				c0,0,0.1,0,0.1,0c0.7-0.1,1.3-0.3,2-0.4c0.3-0.1,0.7,0.1,0.8,0.5c0.1,0.3-0.1,0.7-0.5,0.8c-0.7,0.2-1.4,0.3-2.1,0.4
				c-0.3,0.1-0.7-0.2-0.7-0.5C141.9,225,142.1,224.7,142.4,224.6z M149.6,222.5c0.3-0.1,0.7,0,0.8,0.4c0.1,0.3,0,0.7-0.3,0.8
				c-0.6,0.3-1.3,0.5-2,0.7c-0.3,0.1-0.7-0.1-0.8-0.4c-0.1-0.3,0.1-0.7,0.4-0.8C148.3,223,148.9,222.8,149.6,222.5
				C149.5,222.5,149.5,222.5,149.6,222.5z"/>
			<path fill="#8193CA" d="M127.2,224.1c0.1,0,0.2-0.1,0.4,0c0.3,0.1,0.6,0.2,1,0.2c0.3,0.1,0.6,0.4,0.5,0.8
				c-0.1,0.3-0.4,0.6-0.8,0.5c-0.3-0.1-0.7-0.2-1-0.2c-0.3-0.1-0.5-0.4-0.5-0.8C126.9,224.3,127,224.1,127.2,224.1z"/>
		</g>
		<g>
			<path fill="#8193CA" d="M105.5,207.6c0.3-0.1,0.6,0,0.8,0.3c0.2,0.3,0.3,0.6,0.5,0.9c0.2,0.3,0.1,0.7-0.2,0.9
				c-0.3,0.2-0.7,0.1-0.9-0.2c-0.2-0.3-0.4-0.6-0.5-0.9C105,208.2,105.1,207.8,105.5,207.6C105.4,207.6,105.5,207.6,105.5,207.6z"/>
			<path fill="#8193CA" d="M124.4,156.5C124.4,156.5,124.4,156.5,124.4,156.5c0.6-0.2,1.2-0.4,1.8-0.6l0.2-0.1
				c0.3-0.1,0.7,0.1,0.8,0.4c0.1,0.3-0.1,0.7-0.4,0.8l-0.2,0.1c-0.6,0.2-1.1,0.3-1.7,0.5c-0.3,0.1-0.7-0.1-0.8-0.4
				C123.9,157,124.1,156.7,124.4,156.5z M121.3,157.8c0.3-0.1,0.7,0,0.8,0.3c0.1,0.3,0,0.7-0.3,0.8c-0.6,0.3-1.2,0.6-1.8,0.9
				c-0.3,0.2-0.7,0-0.9-0.3c-0.2-0.3,0-0.7,0.3-0.9C120,158.4,120.7,158.1,121.3,157.8C121.3,157.8,121.3,157.8,121.3,157.8z
				 M129.6,155.2c0,0,0.1,0,0.1,0c0.7-0.1,1.4-0.2,2.1-0.3c0.3,0,0.7,0.2,0.7,0.5c0,0.3-0.2,0.7-0.5,0.7c-0.7,0.1-1.3,0.2-2,0.3
				c-0.3,0.1-0.7-0.2-0.7-0.5C129.1,155.6,129.3,155.3,129.6,155.2z M116.7,160.4c0.3-0.1,0.6,0,0.7,0.2c0.2,0.3,0.1,0.7-0.2,0.9
				c-0.6,0.4-1.1,0.8-1.6,1.1c-0.3,0.2-0.7,0.2-0.9-0.1c-0.2-0.3-0.2-0.7,0.1-0.9c0.6-0.4,1.1-0.8,1.7-1.2
				C116.6,160.4,116.6,160.4,116.7,160.4z M134.9,154.6c0.1,0,0.1,0,0.2,0c0.7,0,1.4,0,2.1,0c0.3,0,0.6,0.3,0.6,0.6
				c0,0.3-0.3,0.6-0.6,0.6c-0.7,0-1.3,0-2,0c-0.4,0-0.6-0.3-0.7-0.6C134.5,154.9,134.6,154.7,134.9,154.6z M112.4,163.6
				c0.2-0.1,0.5,0,0.7,0.2c0.2,0.3,0.2,0.7,0,0.9c-0.5,0.4-1,0.9-1.4,1.4c-0.2,0.2-0.6,0.3-0.9,0c-0.2-0.2-0.3-0.6,0-0.9
				c0.5-0.5,1-1,1.5-1.4C112.3,163.7,112.4,163.7,112.4,163.6z M140.2,154.8c0.1,0,0.2,0,0.3,0c0.7,0.1,1.4,0.2,2.1,0.3
				c0.3,0.1,0.6,0.4,0.5,0.7c-0.1,0.3-0.4,0.6-0.7,0.5c-0.7-0.1-1.3-0.2-2-0.3c-0.3,0-0.6-0.4-0.6-0.7
				C139.8,155.1,140,154.9,140.2,154.8z M108.7,167.5c0.2-0.1,0.4,0,0.6,0.1c0.3,0.2,0.3,0.6,0.1,0.9c-0.4,0.5-0.8,1-1.2,1.6
				c-0.2,0.3-0.6,0.3-0.9,0.1c-0.3-0.2-0.3-0.6-0.1-0.9c0.4-0.6,0.8-1.1,1.3-1.6C108.5,167.6,108.6,167.5,108.7,167.5z M105.7,171.9
				c0.2-0.1,0.4-0.1,0.5,0c0.3,0.2,0.4,0.6,0.2,0.9c-0.3,0.6-0.7,1.2-1,1.8c-0.2,0.3-0.5,0.4-0.9,0.3c-0.3-0.2-0.4-0.5-0.3-0.9
				c0.3-0.6,0.7-1.2,1-1.8C105.4,172,105.5,171.9,105.7,171.9z M103.3,176.7c0.1-0.1,0.3-0.1,0.5,0c0.3,0.1,0.5,0.5,0.4,0.8
				c-0.2,0.6-0.5,1.2-0.7,1.9c-0.1,0.3-0.5,0.5-0.8,0.4c-0.3-0.1-0.5-0.5-0.4-0.8c0.2-0.7,0.5-1.3,0.7-1.9
				C103,176.9,103.1,176.7,103.3,176.7z M101.7,181.8c0.1,0,0.2-0.1,0.4,0c0.3,0.1,0.6,0.4,0.5,0.8c-0.2,0.6-0.3,1.3-0.4,2
				c-0.1,0.3-0.4,0.6-0.7,0.5c-0.3-0.1-0.6-0.4-0.5-0.7c0.1-0.7,0.3-1.4,0.4-2C101.3,182,101.5,181.8,101.7,181.8z M100.8,187
				c0.1,0,0.2,0,0.3,0c0.3,0,0.6,0.3,0.6,0.7c-0.1,0.7-0.1,1.3-0.1,2c0,0.4-0.3,0.6-0.6,0.6c-0.4,0-0.6-0.3-0.6-0.6
				c0-0.7,0.1-1.4,0.1-2.1C100.5,187.3,100.6,187.1,100.8,187z M100.8,192.4c0.1,0,0.1,0,0.2,0c0.3,0,0.7,0.2,0.7,0.6
				c0,0.7,0.1,1.3,0.2,2c0,0.3-0.2,0.7-0.5,0.7c-0.3,0-0.7-0.2-0.7-0.5c-0.1-0.7-0.2-1.4-0.2-2.1
				C100.4,192.7,100.6,192.5,100.8,192.4z M101.6,197.7C101.6,197.7,101.7,197.7,101.6,197.7c0.4-0.1,0.8,0.1,0.8,0.5
				c0.1,0.6,0.3,1.3,0.5,1.9c0.1,0.3-0.1,0.7-0.4,0.8c-0.3,0.1-0.7-0.1-0.8-0.4c-0.2-0.7-0.4-1.3-0.5-2
				C101.1,198.1,101.3,197.8,101.6,197.7z M103.2,202.8c0.3-0.1,0.7,0,0.8,0.4c0.2,0.6,0.5,1.2,0.8,1.8c0.1,0.3,0,0.7-0.3,0.8
				c-0.3,0.1-0.7,0-0.8-0.3c-0.3-0.6-0.6-1.3-0.8-1.9C102.7,203.3,102.8,202.9,103.2,202.8C103.2,202.8,103.2,202.8,103.2,202.8z"/>
			<path fill="#8193CA" d="M145.5,155.9c0.1,0,0.3-0.1,0.4,0c0.3,0.1,0.7,0.2,1,0.3c0.3,0.1,0.5,0.5,0.4,0.8
				c-0.1,0.3-0.5,0.5-0.8,0.4c-0.3-0.1-0.6-0.2-1-0.3c-0.3-0.1-0.5-0.4-0.4-0.8C145.2,156.1,145.3,155.9,145.5,155.9z"/>
		</g>
		<g>
			<g>
				<path fill="#98B1DC" d="M147.5,165.8c-0.2-0.1-0.4-0.1-0.5,0l-3.9,3.3c-2.3-0.7-4.7-1.1-7.2-1l-2.8-4.3
					c-0.1-0.2-0.3-0.2-0.5-0.2l-6,1.5c-0.2,0-0.3,0.2-0.3,0.4l-0.4,5.1c-2.2,1.2-4.1,2.6-5.8,4.4l-5.1-1c-0.2,0-0.4,0-0.4,0.2
					l-3.1,5.3c-0.1,0.2-0.1,0.4,0,0.5l3.3,3.9c-0.7,2.3-1.1,4.7-1,7.2l-4.3,2.8c-0.2,0.1-0.2,0.3-0.2,0.5l1.5,6
					c0,0.2,0.2,0.3,0.4,0.3l5.1,0.4c1.2,2.2,2.6,4.1,4.4,5.8l-1,5.1c0,0.2,0,0.4,0.2,0.4l5.3,3.1c0.2,0.1,0.4,0.1,0.5,0l3.9-3.3
					c2.3,0.7,4.7,1.1,7.2,1l2.8,4.3c0.1,0.2,0.3,0.2,0.5,0.2l6-1.5c0.2,0,0.3-0.2,0.3-0.4l0.4-5.1c2.2-1.2,4.1-2.6,5.8-4.4l5.1,1
					c0.2,0,0.4,0,0.4-0.2l3.1-5.3c0.1-0.2,0.1-0.4,0-0.5l-3.3-3.9c0.7-2.3,1.1-4.7,1-7.2l4.3-2.8c0.2-0.1,0.2-0.3,0.2-0.5l-1.5-6
					c0-0.2-0.2-0.3-0.4-0.3l-5.1-0.4c-1.2-2.2-2.6-4.1-4.4-5.8l1-5.1c0-0.2,0-0.4-0.2-0.4L147.5,165.8z"/>
			</g>
			<g>
				<path fill="#C0CFEB" d="M134.3,185.1c1.2-0.4,2.5-0.5,3.8-0.1c1.5,0.5,2.8,1.5,3.6,2.9c0.8,1.4,0.9,3,0.5,4.6
					c-0.5,1.5-1.5,2.8-2.9,3.6c-2.9,1.6-6.6,0.5-8.1-2.4c-1.6-2.9-0.5-6.6,2.4-8.1C133.7,185.3,134,185.2,134.3,185.1z M138.1,195.4
					c0.2-0.1,0.4-0.2,0.7-0.3c1.2-0.6,2-1.7,2.4-3c0.4-1.3,0.2-2.6-0.4-3.8c-0.6-1.2-1.7-2-3-2.4c-1.3-0.4-2.6-0.2-3.8,0.4
					c-2.4,1.3-3.3,4.4-2,6.8C133.2,195.3,135.8,196.3,138.1,195.4z"/>
			</g>
			<path fill="#C0CFEB" d="M131,176.6c0.5-0.2,1-0.3,1.5-0.5c0.7-0.2,1.5-0.3,2.3-0.4c0,0,0,0,0,0c0,0,0.1,0,0.1,0c0,0,0,0,0,0
				c0,0,0,0,0,0c0,0,0,0,0,0c0,0,0,0,0,0c0,0,0,0,0,0c0,0,0,0,0,0c0,0,0,0,0,0c0,0,0.1,0,0.1,0c0,0,0,0,0.1,0c0.1,0,0.2,0,0.3,0
				c0.1,0,0.1,0,0.2,0c0.1,0,0.2,0.1,0.2,0.2c0,0,0,0.1,0,0.1c0,0.1-0.1,0.3-0.2,0.3c-1,0-2.1,0.2-3.1,0.5c-3.8,1-7,3.4-9,6.8
				c-2,3.4-2.5,7.3-1.6,11.1c0.1,0.5,0.3,1,0.4,1.4c2.6,7,10.1,11,17.4,9.1c3.8-1,7-3.4,9-6.8c2-3.4,2.5-7.3,1.6-11.1
				c-0.1-0.5-0.3-1-0.4-1.4c-0.7-2-1.9-3.8-3.5-5.4c0,0,0-0.1-0.1-0.1c0-0.1,0-0.2,0.1-0.3c0.1-0.1,0.3-0.1,0.4,0
				c1.6,1.6,2.8,3.5,3.6,5.5c0.2,0.5,0.3,1,0.5,1.5c1,3.9,0.4,8-1.6,11.5c-2.1,3.5-5.4,6-9.3,7c-7.6,2-15.4-2.2-18-9.4
				c-0.2-0.5-0.3-1-0.5-1.5C119.6,187.1,123.8,179.3,131,176.6z"/>
		</g>
	</g>
	<g>
		<g>
			<path fill="#8193CA" d="M114.6,217.3c0.3-0.1,0.6,0,0.7,0.2c0.2,0.3,0.4,0.6,0.6,0.8c0.2,0.3,0.1,0.7-0.2,0.9
				c-0.3,0.2-0.7,0.1-0.9-0.2c-0.2-0.3-0.4-0.5-0.6-0.8c-0.2-0.3-0.2-0.7,0.1-0.9C114.5,217.4,114.5,217.4,114.6,217.3z"/>
			<path fill="#8193CA" d="M116.8,221c0.3-0.1,0.6,0,0.8,0.3c0.3,0.6,0.6,1.3,0.8,1.9c0.1,0.3,0,0.7-0.4,0.8c-0.3,0.1-0.7,0-0.8-0.4
				c-0.2-0.6-0.5-1.2-0.8-1.8C116.3,221.5,116.4,221.2,116.8,221C116.8,221,116.8,221,116.8,221z M118.6,226
				C118.6,225.9,118.7,225.9,118.6,226c0.4-0.1,0.8,0.1,0.8,0.4c0.2,0.7,0.3,1.4,0.4,2c0.1,0.3-0.2,0.7-0.5,0.7
				c-0.3,0.1-0.7-0.2-0.7-0.5c-0.1-0.6-0.2-1.3-0.4-1.9C118.1,226.4,118.3,226.1,118.6,226z M119.3,231.2c0.1,0,0.1,0,0.2,0
				c0.4,0,0.6,0.3,0.6,0.6c0,0.7,0,1.4-0.1,2.1c0,0.3-0.3,0.6-0.7,0.6c-0.3,0-0.6-0.3-0.6-0.7c0-0.6,0.1-1.3,0.1-2
				C118.8,231.5,119,231.3,119.3,231.2z M118.7,236.4c0.1,0,0.2-0.1,0.4,0c0.3,0.1,0.6,0.4,0.5,0.8c-0.1,0.7-0.3,1.3-0.5,2
				c-0.1,0.3-0.5,0.5-0.8,0.4c-0.3-0.1-0.5-0.5-0.4-0.8c0.2-0.6,0.4-1.3,0.5-1.9C118.4,236.7,118.5,236.5,118.7,236.4z M117,241.4
				c0.2-0.1,0.3-0.1,0.5,0c0.3,0.1,0.5,0.5,0.3,0.8c-0.3,0.6-0.6,1.2-1,1.8c-0.2,0.3-0.6,0.4-0.9,0.2c-0.3-0.2-0.4-0.6-0.2-0.9
				c0.3-0.6,0.6-1.1,0.9-1.7C116.7,241.6,116.9,241.5,117,241.4z M114.3,245.9c0.2-0.1,0.4,0,0.6,0.1c0.3,0.2,0.3,0.6,0.1,0.9
				c-0.4,0.5-0.9,1.1-1.3,1.6c-0.2,0.3-0.6,0.3-0.9,0c-0.3-0.2-0.3-0.6,0-0.9c0.4-0.5,0.9-1,1.3-1.5
				C114.1,246.1,114.2,246,114.3,245.9z M93.9,255c0.1,0,0.2,0,0.3,0c0.6,0,1.3,0.1,2,0.1c0.4,0,0.6,0.3,0.6,0.6
				c0,0.4-0.3,0.6-0.6,0.6c-0.7,0-1.4,0-2.1-0.1c-0.3,0-0.6-0.3-0.6-0.7C93.5,255.3,93.7,255.1,93.9,255z M110.6,249.7
				c0.2-0.1,0.5,0,0.7,0.2c0.2,0.3,0.2,0.7-0.1,0.9c-0.5,0.4-1.1,0.9-1.7,1.2c-0.3,0.2-0.7,0.1-0.9-0.2c-0.2-0.3-0.1-0.7,0.2-0.9
				c0.5-0.4,1.1-0.8,1.6-1.2C110.5,249.8,110.5,249.8,110.6,249.7z M99.2,254.8c0,0,0.1,0,0.1,0c0.6-0.1,1.3-0.2,1.9-0.4
				c0.3-0.1,0.7,0.1,0.8,0.5c0.1,0.3-0.1,0.7-0.5,0.8c-0.7,0.2-1.4,0.3-2,0.4c-0.3,0.1-0.7-0.2-0.7-0.5
				C98.8,255.2,98.9,254.9,99.2,254.8z M106.2,252.6c0.3-0.1,0.6,0,0.8,0.3c0.2,0.3,0,0.7-0.3,0.9c-0.6,0.3-1.2,0.6-1.9,0.8
				c0,0,0,0,0,0c-0.3,0.1-0.7,0-0.8-0.4c-0.1-0.3,0-0.7,0.4-0.8C104.9,253.2,105.5,252.9,106.2,252.6
				C106.1,252.6,106.1,252.6,106.2,252.6z"/>
			<path fill="#8193CA" d="M89.7,254.3c0.1,0,0.2-0.1,0.4,0c0.3,0.1,0.6,0.2,1,0.2c0.3,0.1,0.6,0.4,0.5,0.8
				c-0.1,0.3-0.4,0.6-0.8,0.5c-0.3-0.1-0.7-0.2-1-0.2c-0.3-0.1-0.5-0.4-0.5-0.8C89.4,254.5,89.5,254.4,89.7,254.3z"/>
		</g>
		<g>
			<path fill="#8193CA" d="M75,243c0.3-0.1,0.6,0,0.8,0.3c0.2,0.3,0.3,0.6,0.5,0.9c0.2,0.3,0.1,0.7-0.2,0.9
				c-0.3,0.2-0.7,0.1-0.9-0.2c-0.2-0.3-0.4-0.6-0.5-0.9C74.5,243.6,74.6,243.2,75,243C74.9,243,75,243,75,243z"/>
			<path fill="#8193CA" d="M87.4,209.3c0.3-0.1,0.5-0.2,0.8-0.3c0.3-0.1,0.7,0.1,0.8,0.4c0.1,0.3-0.1,0.7-0.4,0.8c0,0,0,0,0,0
				c-0.2,0.1-0.5,0.2-0.7,0.3c0,0,0,0,0,0c-0.4,0.1-0.7,0.3-1.1,0.4c-0.3,0.1-0.7,0-0.8-0.3c-0.1-0.3,0-0.7,0.3-0.8
				C86.6,209.6,87,209.4,87.4,209.3z M91.3,208.2c0,0,0.1,0,0.1,0c0.7-0.1,1.3-0.2,2-0.3c0.3,0,0.7,0.2,0.7,0.6
				c0,0.3-0.2,0.7-0.6,0.7c-0.6,0.1-1.3,0.2-1.9,0.3c-0.3,0.1-0.7-0.2-0.7-0.5C90.8,208.6,91,208.3,91.3,208.2z M83.4,211.2
				c0.3-0.1,0.6,0,0.8,0.3c0.2,0.3,0.1,0.7-0.2,0.9c-0.5,0.3-1.1,0.7-1.6,1.1c-0.3,0.2-0.7,0.1-0.9-0.1c-0.2-0.3-0.1-0.7,0.1-0.9
				c0.5-0.4,1.1-0.8,1.7-1.1C83.4,211.2,83.4,211.2,83.4,211.2z M96.5,207.8c0.1,0,0.2,0,0.2,0c0.7,0,1.4,0.1,2,0.2
				c0.3,0,0.6,0.4,0.6,0.7c0,0.3-0.4,0.6-0.7,0.6c-0.6-0.1-1.3-0.1-1.9-0.1c-0.4,0-0.6-0.3-0.6-0.7
				C96.1,208.1,96.2,207.9,96.5,207.8z M79.3,214.3c0.2-0.1,0.5,0,0.7,0.2c0.2,0.3,0.2,0.7,0,0.9c-0.5,0.4-0.9,0.9-1.3,1.4
				c-0.2,0.3-0.6,0.3-0.9,0.1c-0.3-0.2-0.3-0.6-0.1-0.9c0.4-0.5,0.9-1,1.4-1.5C79.2,214.4,79.2,214.3,79.3,214.3z M76,218.3
				c0.2-0.1,0.4,0,0.6,0.1c0.3,0.2,0.4,0.6,0.2,0.9c-0.4,0.5-0.7,1.1-1,1.6c-0.2,0.3-0.6,0.4-0.9,0.2c-0.3-0.2-0.4-0.6-0.2-0.9
				c0.3-0.6,0.7-1.2,1.1-1.7C75.7,218.4,75.8,218.3,76,218.3z M73.6,222.9c0.1-0.1,0.3-0.1,0.4,0c0.3,0.1,0.5,0.5,0.4,0.8
				c-0.2,0.6-0.4,1.2-0.6,1.8c-0.1,0.3-0.5,0.5-0.8,0.4c-0.3-0.1-0.5-0.5-0.4-0.8c0.2-0.6,0.4-1.3,0.7-1.9
				C73.3,223.1,73.4,223,73.6,222.9z M72.2,227.9c0.1,0,0.2,0,0.3,0c0.3,0.1,0.6,0.4,0.5,0.7c-0.1,0.6-0.2,1.3-0.2,1.9
				c0,0.3-0.3,0.6-0.7,0.6c-0.3,0-0.6-0.3-0.6-0.7c0-0.7,0.1-1.4,0.2-2C71.9,228.2,72,228,72.2,227.9z M72,233.1c0.1,0,0.1,0,0.2,0
				c0.3,0,0.7,0.2,0.7,0.6c0,0.6,0.1,1.3,0.2,1.9c0.1,0.3-0.2,0.7-0.5,0.7c-0.3,0.1-0.7-0.2-0.7-0.5c-0.1-0.7-0.2-1.3-0.2-2
				C71.6,233.5,71.8,233.2,72,233.1z M73,238.2C73,238.2,73,238.2,73,238.2c0.4-0.1,0.7,0.1,0.8,0.4c0.1,0.5,0.3,0.9,0.5,1.4
				c0.1,0.1,0.1,0.3,0.2,0.4c0.1,0.3,0,0.7-0.4,0.8c0,0,0,0,0,0c-0.3,0.1-0.7,0-0.8-0.4c-0.1-0.2-0.1-0.3-0.2-0.5
				c-0.2-0.5-0.3-1-0.5-1.5C72.5,238.7,72.7,238.3,73,238.2z"/>
			<path fill="#8193CA" d="M101.6,208.6c0.1,0,0.2-0.1,0.4,0c0.3,0.1,0.7,0.2,1,0.3c0.3,0.1,0.5,0.5,0.4,0.8
				c-0.1,0.3-0.5,0.5-0.8,0.4c-0.3-0.1-0.6-0.2-0.9-0.3c-0.3-0.1-0.5-0.4-0.5-0.8C101.3,208.8,101.4,208.6,101.6,208.6z"/>
		</g>
		<g>
			<g>
				<path fill="#98B1DC" d="M103.3,215.5c-0.1-0.1-0.2-0.1-0.3,0l-2.6,2.2c-1.5-0.5-3.2-0.7-4.8-0.7l-1.9-2.9
					c-0.1-0.1-0.2-0.1-0.3-0.1l-4,1c-0.1,0-0.2,0.1-0.2,0.3l-0.3,3.4c-1.5,0.8-2.8,1.8-3.9,2.9l-3.4-0.7c-0.1,0-0.2,0-0.3,0.1
					l-2.1,3.6c-0.1,0.1-0.1,0.2,0,0.3l2.2,2.6c-0.5,1.5-0.7,3.2-0.7,4.8l-2.9,1.9c-0.1,0.1-0.1,0.2-0.1,0.3l1,4
					c0,0.1,0.1,0.2,0.3,0.2l3.4,0.3c0.8,1.5,1.8,2.8,2.9,3.9l-0.7,3.4c0,0.1,0,0.2,0.1,0.3l3.6,2.1c0.1,0.1,0.2,0.1,0.3,0l2.6-2.2
					c1.5,0.5,3.2,0.7,4.8,0.7l1.9,2.9c0.1,0.1,0.2,0.1,0.3,0.1l4-1c0.1,0,0.2-0.1,0.2-0.3l0.3-3.4c1.5-0.8,2.8-1.8,3.9-2.9l3.4,0.7
					c0.1,0,0.2,0,0.3-0.1l2.1-3.6c0.1-0.1,0.1-0.2,0-0.3l-2.2-2.6c0.5-1.5,0.7-3.2,0.7-4.8l2.9-1.9c0.1-0.1,0.1-0.2,0.1-0.3l-1-4
					c0-0.1-0.1-0.2-0.3-0.2l-3.4-0.3c-0.8-1.5-1.8-2.8-2.9-3.9l0.7-3.4c0-0.1,0-0.2-0.1-0.3L103.3,215.5z"/>
			</g>
			<g>
				<path fill="#C0CFEB" d="M94.4,228c0.9-0.3,1.9-0.4,2.8-0.1c1.1,0.3,2.1,1.1,2.6,2.1c0.6,1,0.7,2.2,0.4,3.4
					c-0.3,1.1-1.1,2.1-2.1,2.6c-1,0.6-2.2,0.7-3.4,0.4c-1.1-0.3-2.1-1.1-2.6-2.1c-0.6-1-0.7-2.2-0.4-3.4c0.3-1.1,1.1-2.1,2.1-2.6
					C94,228.2,94.2,228.1,94.4,228z M96.9,234.9c0.1,0,0.3-0.1,0.4-0.2c0.7-0.4,1.2-1,1.4-1.7c0.2-0.7,0.1-1.5-0.2-2.2
					c-0.4-0.7-1-1.2-1.7-1.4c-0.7-0.2-1.5-0.1-2.2,0.2l0,0c-0.7,0.4-1.2,1-1.4,1.7c-0.2,0.7-0.1,1.5,0.2,2.2c0.4,0.7,1,1.2,1.7,1.4
					C95.7,235.2,96.3,235.2,96.9,234.9z"/>
			</g>
			<path fill="#C0CFEB" d="M92.3,222.7c0.3-0.1,0.7-0.2,1-0.3l0,0c0.7-0.2,1.4-0.3,2.2-0.3c0.1,0,0.2,0.1,0.2,0.2c0,0,0,0.1,0,0.1
				c0,0.1-0.1,0.3-0.2,0.3c-0.7,0-1.4,0.1-2.1,0.3c-5.2,1.3-8.3,6.7-7,11.9c0.1,0.3,0.2,0.6,0.3,0.9c1.7,4.6,6.7,7.3,11.6,6
				c5.2-1.3,8.3-6.7,7-11.9c-0.1-0.3-0.2-0.6-0.3-0.9c-0.5-1.3-1.3-2.6-2.3-3.6c0,0,0-0.1-0.1-0.1c0-0.1,0-0.2,0.1-0.3
				c0.1-0.1,0.3-0.1,0.4,0c1.1,1.1,1.9,2.3,2.4,3.7c0.1,0.3,0.2,0.7,0.3,1c1.4,5.5-1.9,11.1-7.4,12.5c-5.1,1.3-10.4-1.5-12.2-6.4
				c-0.1-0.3-0.2-0.7-0.3-1C84.6,229.7,87.4,224.5,92.3,222.7z"/>
		</g>
	</g>
</g>
<g>
	<polygon fill="#1E417C" points="361.1,435.7 328.4,435.7 343.1,76.4 345.1,76.6 	"/>
	<rect x="268" y="389.7" fill="#1A4682" width="153.1" height="15.3"/>
	<rect x="255" y="405" fill="#1E417C" width="180.3" height="15.3"/>
	<rect x="240.8" y="420.4" fill="#1A4682" width="207.5" height="15.3"/>
	<rect x="229.4" y="155.8" fill="#1E417C" width="242.5" height="6.1"/>
	<polygon fill="#1E417C" points="159.1,255.7 157.9,254.8 233.5,153.8 290.6,254.9 289.3,255.6 233.4,156.6 	"/>
	<path fill="#1E417C" d="M240.7,154c3.3,7.3-3.7,14.3-11,11c-1.5-0.7-2.8-2-3.5-3.5c-3.3-7.3,3.7-14.3,11-11
		C238.7,151.2,240,152.5,240.7,154z"/>
	<polygon fill="#1E417C" points="394.4,257.8 393.2,256.9 468.8,156 525.9,257 524.5,257.8 468.6,158.8 	"/>
	<path fill="#1E417C" d="M366,153.4c7.5,19.8-10.9,38.2-30.7,30.7c-5.8-2.2-10.3-6.8-12.5-12.5c-7.5-19.8,10.9-38.2,30.7-30.7
		C359.2,143.1,363.8,147.7,366,153.4z"/>
	<linearGradient id="SVGID_2_" gradientUnits="userSpaceOnUse" x1="488.0901" y1="118.0104" x2="454.3097" y2="181.7108">
		<stop  offset="0" style="stop-color:#4C57A6"/>
		<stop  offset="1" style="stop-color:#5560AB"/>
	</linearGradient>
	<path fill="url(#SVGID_2_)" d="M474,154.5c3.3,7.3-3.7,14.3-11,11c-1.5-0.7-2.8-2-3.5-3.5c-3.3-7.3,3.7-14.3,11-11
		C472,151.7,473.3,153,474,154.5z"/>
	<path fill="#1A4682" d="M459.5,323.1c36.3,0,65.7-29.4,65.7-65.7H393.8C393.8,293.7,423.2,323.1,459.5,323.1z"/>
	<path fill="#1E417C" d="M525.7,260.6h-134c-2.6,0-4.6-2.1-4.6-4.6v-0.7c0-2.6,2.1-4.6,4.6-4.6h134c2.6,0,4.6,2.1,4.6,4.6v0.7
		C530.3,258.5,528.3,260.6,525.7,260.6z"/>
	<path fill="#1A4682" d="M224.2,320.9c36.3,0,65.7-29.4,65.7-65.7H158.5C158.5,291.5,187.9,320.9,224.2,320.9z"/>
	<path fill="#1E417C" d="M290.4,258.5h-134c-2.6,0-4.6-2.1-4.6-4.6v-0.7c0-2.6,2.1-4.6,4.6-4.6h134c2.6,0,4.6,2.1,4.6,4.6v0.7
		C295.1,256.4,293,258.5,290.4,258.5z"/>
</g>
<path fill="#1E619A" d="M563.5,212.8c21.9-1.8,27.7,2.7,27.7,2.7l-10.5,16.6c0,0-21.6-0.4-37-12.3c2.9-3.1,4.9-6.6,6.2-9.2
	C553.8,212.3,558.4,213.2,563.5,212.8z"/>
<linearGradient id="SVGID_3_" gradientUnits="userSpaceOnUse" x1="539.9967" y1="169.0862" x2="538.722" y2="221.032">
	<stop  offset="0" style="stop-color:#A22C25"/>
	<stop  offset="1" style="stop-color:#C1423D"/>
</linearGradient>
<path fill="url(#SVGID_3_)" d="M529.2,180.6c0-0.7,1-0.9,1.3-0.3l2.8,6c0.5,1.2,0.7,2.4,0.5,3.7l-1,3.5c-0.3,1.7,0.1,3.4,1.2,4.8
	c2.6,3.2,8.1,9.1,15.9,12.3c-1.3,2.7-3.3,6.1-6.2,9.2c-5.7-4.4-10.5-10.3-13.2-18.3c-1.3-0.4-2.1-1.6-2.1-2.9L529.2,180.6z"/>
<path fill="#F0C11B" d="M556.2,141.5c21.6,56.3-31,108.8-87.3,87.3c-14-5.4-30-21.3-35.4-35.4c-21.6-56.3,31-108.8,87.3-87.3
	C534.9,111.5,550.9,127.5,556.2,141.5z"/>
<path fill="#FFFFFF" d="M547.1,145.3c19,48.5-26.5,94-74.9,74.9c-13.5-5.3-24.2-16-29.5-29.5c-19-48.5,26.5-94,74.9-74.9
	C531.1,121.1,541.8,131.8,547.1,145.3z"/>
<path fill="#F0C11B" d="M492.5,93.1c4,1.7,15.7,7.2,18,8.3c0.2,0.1,0.2,0.3,0.1,0.5l-14,15.3c-0.6,0.6-1.5,1-2.3,0.9l-6-0.7
	c-0.2,0-0.3-0.3-0.2-0.5l7.9-12.9c0.1-0.2,0-0.4-0.2-0.4l-11.4-4.4c-0.9-0.4-1-1.6-0.1-2.1l8.1-4C492.3,93,492.4,93,492.5,93.1z"/>
<linearGradient id="SVGID_4_" gradientUnits="userSpaceOnUse" x1="-3780.9568" y1="377.9699" x2="-3766.6584" y2="377.9699" gradientTransform="matrix(-1 0 0 1 -3161.7837 0)">
	<stop  offset="0" style="stop-color:#201B59"/>
	<stop  offset="1" style="stop-color:#2D2D84"/>
</linearGradient>
<path fill="url(#SVGID_4_)" d="M617.2,372.9c0,0,1.6,2.5,2,9.5c0,0.7-0.5,1.2-1.1,1.2h-12.4c-0.5,0-0.9-0.5-0.7-1
	c0.7-2.2,2.9-7.4,7.8-10.4L617.2,372.9z"/>
<linearGradient id="SVGID_5_" gradientUnits="userSpaceOnUse" x1="-3779.5063" y1="371.3257" x2="-3773.7075" y2="371.3257" gradientTransform="matrix(-1 0 0 1 -3161.7837 0)">
	<stop  offset="0" style="stop-color:#A22C25"/>
	<stop  offset="1" style="stop-color:#C1423D"/>
</linearGradient>
<path fill="url(#SVGID_5_)" d="M617.7,368.2l-0.7,5.9c-0.1,0.5-0.5,0.9-1,1c-0.7,0.1-1.7,0.1-2.6,0c-0.9-0.1-1.5-0.9-1.5-1.8v-5.7
	L617.7,368.2z"/>
<linearGradient id="SVGID_6_" gradientUnits="userSpaceOnUse" x1="-3750.5496" y1="377.7413" x2="-3728.115" y2="377.7413" gradientTransform="matrix(-1 0 0 1 -3161.7837 0)">
	<stop  offset="0" style="stop-color:#201B59"/>
	<stop  offset="1" style="stop-color:#2D2D84"/>
</linearGradient>
<path fill="url(#SVGID_6_)" d="M586.4,372.3c0,0,2.4,3.7,2.3,8.8c0,1.2-1,2.1-2.2,2.1h-19.3c-0.9,0-1.3-1.2-0.5-1.7
	c3.7-2.6,10.8-7.4,16-9.2H586.4z"/>
<linearGradient id="SVGID_7_" gradientUnits="userSpaceOnUse" x1="-3750.209" y1="368.7507" x2="-3744.4419" y2="368.7507" gradientTransform="matrix(-1 0 0 1 -3161.7837 0)">
	<stop  offset="0" style="stop-color:#A22C25"/>
	<stop  offset="1" style="stop-color:#C1423D"/>
</linearGradient>
<path fill="url(#SVGID_7_)" d="M588.4,365.9l-1.5,7.3c-0.2,0.8-1,1.4-1.8,1.2c-0.5-0.1-1.1-0.3-1.7-0.7c-0.6-0.4-0.9-1.1-0.8-1.8
	l1.6-8.8L588.4,365.9z"/>
<path fill="#1E619A" d="M615,264.7c0,0,5.2,4.6,6.2,10.1c1,5.5-2.8,95.4-2.8,95.4s-5.2,0.9-7.9-0.8c0,0-3.2-58.3-5.6-71.8
	c0,0-12.7,60.4-16.2,71.3c0,0-5,0.6-6.6-0.3c0,0,3.3-78.3,7.5-92.2L615,264.7z"/>
<path fill="#266EA3" d="M556.3,222.4c7.7-8.3,22.4-12.1,31-13.6c3.7-0.7,7.4,1.4,8.7,5c3.8,10.3,14.3,37.1,16.3,41.7
	c1.7,3.8,3.4,7.5,4.5,9.8c0.7,1.4,0.1,3-1.3,3.7c-7.2,3.5-20.1,7.4-25.3,8.9c-1.2,0.3-2.3-0.5-2.3-1.7c0-1-0.3-2-0.8-2.9l-19.8-33
	c-12.3,13.7-23.2,14.9-31.5,11.9c1.4-4.3,2.3-8.6,2.7-13C550.8,237.1,556.3,222.4,556.3,222.4z"/>
<linearGradient id="SVGID_8_" gradientUnits="userSpaceOnUse" x1="-3663.093" y1="204.56" x2="-3709.4036" y2="262.1746" gradientTransform="matrix(-1 0 0 1 -3161.7837 0)">
	<stop  offset="0" style="stop-color:#A22C25"/>
	<stop  offset="1" style="stop-color:#C1423D"/>
</linearGradient>
<path fill="url(#SVGID_8_)" d="M518.3,236.9l2.2-3c7.2,4.9,13.2,6.1,18.1,5.2c-0.4,4.3-1.4,8.7-2.7,13
	C524.9,248.2,518.3,236.9,518.3,236.9z"/>
<linearGradient id="SVGID_9_" gradientUnits="userSpaceOnUse" x1="-3654.313" y1="211.6175" x2="-3700.6233" y2="269.232" gradientTransform="matrix(-1 0 0 1 -3161.7837 0)">
	<stop  offset="0" style="stop-color:#A22C25"/>
	<stop  offset="1" style="stop-color:#C1423D"/>
</linearGradient>
<path fill="url(#SVGID_9_)" d="M519.9,237l-12.5,0.5l-11.5-6.4c1.6-1,11,1.1,11,1.1s9.7-1.5,12.4-1.5c2.2,0,1.9,3.1,1.7,4.2
	c0,0.2-0.1,0.3-0.1,0.3L519.9,237z"/>
<linearGradient id="SVGID_10_" gradientUnits="userSpaceOnUse" x1="-3715.1926" y1="169.7407" x2="-3760.0444" y2="252.1516" gradientTransform="matrix(-1 0 0 1 -3161.7837 0)">
	<stop  offset="0" style="stop-color:#A22C25"/>
	<stop  offset="1" style="stop-color:#C1423D"/>
</linearGradient>
<path fill="url(#SVGID_10_)" d="M575.5,193.5l6.6,16.1c0,0-7.6,5.2-13.6,4.7l-3.3-14.4L575.5,193.5z"/>
<g>
	
		<linearGradient id="SVGID_11_" gradientUnits="userSpaceOnUse" x1="-3729.5752" y1="-3306.7395" x2="-3751.6575" y2="-3277.5261" gradientTransform="matrix(-0.6854 -0.7281 -0.7281 0.6854 -4393.0132 -265.0308)">
		<stop  offset="0" style="stop-color:#A22C25"/>
		<stop  offset="1" style="stop-color:#C1423D"/>
	</linearGradient>
	<path fill="url(#SVGID_11_)" d="M568,180.8c-0.2,0.2-8.9,17.4-8.9,17.4l9.9,4.8l10.7-15C579.6,187.9,571.5,177.5,568,180.8z"/>
	<path fill="#191819" d="M575.3,188.3c0.2,0.5,0.1,1-0.1,1.4l-4.9,8.2c-0.1,0.1-0.2,0.2-0.3,0.3c-0.6,0.5-2.6,2.1-4.2,0
		c-1.3-1.8-2.6-3.5-3.9-4.2c-0.8-0.4-1.7-0.1-2.1,0.7c-0.8,1.6-2.4,4.9-3.4,8c-0.2,0.8,0.2,1.6,0.9,1.9c2,0.8,6,2.3,9.5,2.8
		c0.6,0.1,1.1-0.2,1.5-0.6c1.5-2.1,5.8-7.9,7.2-9.3c1.4-1.3,3.8-0.8,5-0.5c0.4,0.1,0.9,0.1,1.3-0.2c1.1-0.7,3.1-2.4,1.3-5.3
		c-0.5-0.7-0.2-1.7,0.5-2.1c1.3-0.8,2.7-2.4,1.3-5c-1.3-2.6-3.7-2.8-5.3-2.6c-0.7,0.1-1.4-0.3-1.7-1c-0.1-0.3-0.4-0.6-0.8-0.6
		c-0.8-0.2-1.4-0.9-1.2-1.8c0.3-1.5,0.1-3.4-2.3-4.6c-4.3-2.3-8,1.5-9,4.7c-1,3.2,3.8,5.5,6.8,5.9
		C573.6,184.6,574.8,187.1,575.3,188.3z"/>
	
		<linearGradient id="SVGID_12_" gradientUnits="userSpaceOnUse" x1="-3761.917" y1="-3283.605" x2="-3744.2053" y2="-3301.7766" gradientTransform="matrix(-0.6854 -0.7281 -0.7281 0.6854 -4393.0132 -265.0308)">
		<stop  offset="0" style="stop-color:#A22C25"/>
		<stop  offset="1" style="stop-color:#C1423D"/>
	</linearGradient>
	<path fill="url(#SVGID_12_)" d="M573.6,200.5c0,0,1.9-5.6,4.3-5.4c2.4,0.2,4.3,2.6,1.3,5.3C575.6,203.9,573.6,200.5,573.6,200.5z"
		/>
</g>
<g>
	<path fill="#8193CA" d="M567.9,520.3c0.6,0,1.1-0.5,1.1-1.1V382.6c0-0.6-0.5-1.1-1.1-1.1s-1.1,0.5-1.1,1.1v136.6
		C566.8,519.8,567.3,520.3,567.9,520.3z"/>
	<path fill="#8193CA" d="M598.9,520.3c0.6,0,1.1-0.5,1.1-1.1V382.6c0-0.6-0.5-1.1-1.1-1.1c-0.6,0-1.1,0.5-1.1,1.1v136.6
		C597.7,519.8,598.2,520.3,598.9,520.3z"/>
	<path fill="#8193CA" d="M675,521.2c0.1,0,0.3,0,0.4-0.1c0.6-0.2,0.9-0.9,0.6-1.5l-58.4-137.4c-0.2-0.6-0.9-0.9-1.5-0.6
		c-0.6,0.2-0.9,0.9-0.6,1.5l58.4,137.4C674.1,520.9,674.5,521.2,675,521.2z"/>
	<path fill="#8193CA" d="M638.9,521.2c0.1,0,0.3,0,0.4-0.1c0.6-0.2,0.9-0.9,0.6-1.5l-58.4-137.4c-0.2-0.6-0.9-0.9-1.5-0.6
		c-0.6,0.2-0.9,0.9-0.6,1.5l58.4,137.4C638,520.9,638.4,521.2,638.9,521.2z"/>
	<path fill="#8193CA" d="M566,383.8h53.8c0.8,0,1.5-0.7,1.5-1.5v-0.2c0-0.8-0.7-1.5-1.5-1.5H566c-0.8,0-1.5,0.7-1.5,1.5v0.2
		C564.5,383.2,565.2,383.8,566,383.8z"/>
	<path fill="#8193CA" d="M588.1,403.6c0,0.6,0.5,1.1,1.1,1.1h36.2c0.6,0,1.1-0.5,1.1-1.1c0-0.6-0.5-1.1-1.1-1.1h-36.2
		C588.6,402.4,588.1,403,588.1,403.6z"/>
	<rect x="600.4" y="428.4" fill="#8193CA" width="36.2" height="2.3"/>
	<rect x="611.1" y="454.4" fill="#8193CA" width="36.2" height="2.3"/>
	<path fill="#8193CA" d="M622.4,482.7h36.2c0.6,0,1.1-0.5,1.1-1.1c0-0.6-0.5-1.1-1.1-1.1h-36.2c-0.6,0-1.1,0.5-1.1,1.1
		C621.3,482.2,621.8,482.7,622.4,482.7z"/>
	<path fill="#8193CA" d="M632.2,507.6c0,0.6,0.5,1.1,1.1,1.1h36.2c0.6,0,1.1-0.5,1.1-1.1c0-0.6-0.5-1.1-1.1-1.1h-36.2
		C632.7,506.4,632.2,506.9,632.2,507.6z"/>
</g>
<g>
	<path fill="#FFFFFF" d="M169.6,340.2l-1.2,0.4c-0.1,0-0.2,0-0.3-0.2c0-0.1,0-0.2,0.2-0.3c0,0,0,0,0,0l0,0l1.2-0.3l0,0
		c0.1,0,0.2,0,0.3,0.1C169.7,340.1,169.7,340.2,169.6,340.2z"/>
	<path fill="#FFFFFF" d="M165.5,341.1l-1.3,0.1c-0.2,0-0.3-0.1-0.3-0.3c0-0.2,0.1-0.3,0.3-0.3c0,0,0,0,0,0l0,0l1.2,0l0,0
		c0.2,0,0.3,0.1,0.3,0.3C165.8,341,165.7,341.1,165.5,341.1z"/>
	<path fill="#FFFFFF" d="M161.3,341.1l-1.2-0.2c-0.2,0-0.3-0.2-0.3-0.4c0-0.2,0.2-0.3,0.4-0.3c0,0,0,0,0,0l0,0l1.2,0.2l0,0
		c0.2,0,0.3,0.2,0.3,0.4C161.7,341,161.5,341.1,161.3,341.1z"/>
	<path fill="#FFFFFF" d="M157.2,340.3l-1.2-0.4c-0.2-0.1-0.3-0.3-0.3-0.5c0.1-0.2,0.3-0.3,0.5-0.3c0,0,0,0,0,0l0,0l1.1,0.4l0,0
		c0.2,0.1,0.3,0.3,0.2,0.5C157.7,340.2,157.4,340.3,157.2,340.3z"/>
	<path fill="#FFFFFF" d="M153.4,338.7l-1.1-0.6c-0.2-0.1-0.3-0.4-0.2-0.6c0.1-0.2,0.4-0.3,0.6-0.2c0,0,0,0,0,0l0,0l1.1,0.6l0,0
		c0.2,0.1,0.3,0.4,0.2,0.6C153.8,338.7,153.6,338.8,153.4,338.7z"/>
	<path fill="#FFFFFF" d="M149.8,336.5l-1-0.8c-0.2-0.2-0.3-0.5-0.1-0.7c0.2-0.2,0.5-0.3,0.7-0.1c0,0,0,0,0,0l0,0l1,0.7l0,0
		c0.2,0.2,0.3,0.5,0.1,0.7C150.3,336.6,150,336.7,149.8,336.5z"/>
	<path fill="#FFFFFF" d="M146.6,333.8l-0.9-0.9c-0.2-0.2-0.2-0.6,0-0.8c0.2-0.2,0.6-0.2,0.8,0c0,0,0,0,0,0l0,0l0.8,0.9l0,0
		c0.2,0.2,0.2,0.6,0,0.8C147.1,334.1,146.8,334,146.6,333.8z"/>
	<path fill="#FFFFFF" d="M143.8,330.7l-0.7-1c-0.2-0.3-0.1-0.7,0.1-0.9c0.3-0.2,0.7-0.1,0.9,0.1c0,0,0,0,0,0l0,0l0.7,1l0,0
		c0.2,0.3,0.1,0.6-0.1,0.8C144.3,331,144,331,143.8,330.7z"/>
	<path fill="#FFFFFF" d="M141.4,327.2l-0.6-1.1c-0.2-0.3-0.1-0.7,0.2-0.9c0.3-0.2,0.7-0.1,0.9,0.2c0,0,0,0,0,0l0,0l0.6,1.1l0,0
		c0.2,0.3,0.1,0.7-0.3,0.9C142,327.6,141.6,327.5,141.4,327.2z"/>
	<path fill="#FFFFFF" d="M139.5,323.5l-0.5-1.1c-0.2-0.4,0-0.8,0.4-0.9c0.4-0.2,0.8,0,0.9,0.4c0,0,0,0,0,0l0,0l0.5,1.1l0,0
		c0.1,0.4,0,0.8-0.4,0.9C140,324,139.6,323.9,139.5,323.5z"/>
	<path fill="#FFFFFF" d="M137.9,319.6l-0.4-1.2c-0.1-0.4,0.1-0.8,0.5-0.9c0.4-0.1,0.8,0.1,0.9,0.5c0,0,0,0,0,0l0,0l0.4,1.2l0,0
		c0.1,0.4-0.1,0.8-0.5,0.9C138.4,320.2,138,320,137.9,319.6z"/>
	<path fill="#FFFFFF" d="M136.7,315.7l-0.3-1.2c-0.1-0.4,0.1-0.8,0.6-0.9c0.4-0.1,0.8,0.1,0.9,0.6c0,0,0,0,0,0l0,0l0.3,1.2l0,0
		c0.1,0.4-0.1,0.8-0.6,0.9C137.2,316.3,136.8,316.1,136.7,315.7z"/>
	<path fill="#FFFFFF" d="M135.7,311.6l-0.3-1.2c-0.1-0.4,0.2-0.9,0.6-1c0.4-0.1,0.9,0.2,1,0.6c0,0,0,0,0,0l0,0l0.2,1.2l0,0
		c0.1,0.4-0.2,0.8-0.6,0.9C136.2,312.3,135.8,312,135.7,311.6z"/>
	<path fill="#FFFFFF" d="M134.9,307.5l-0.2-1.2c-0.1-0.5,0.2-0.9,0.7-1c0.5-0.1,0.9,0.2,1,0.7c0,0,0,0,0,0l0,0l0.2,1.2l0,0
		c0.1,0.5-0.2,0.9-0.7,0.9C135.4,308.3,135,308,134.9,307.5z"/>
	<path fill="#FFFFFF" d="M134.3,303.4l-0.1-1.2c-0.1-0.5,0.3-0.9,0.8-1c0.5-0.1,0.9,0.3,1,0.8c0,0,0,0,0,0l0,0l0.1,1.2l0,0
		c0,0.5-0.3,0.9-0.8,0.9C134.8,304.2,134.3,303.9,134.3,303.4z"/>
	<path fill="#FFFFFF" d="M133.9,299.3l-0.1-1.2c0-0.5,0.3-0.9,0.8-1c0.5,0,0.9,0.3,1,0.8c0,0,0,0,0,0l0,0l0.1,1.2l0,0
		c0,0.5-0.3,0.9-0.8,0.9C134.3,300.1,133.9,299.8,133.9,299.3z"/>
	<path fill="#FFFFFF" d="M133.6,295.1l0-1.2c0-0.5,0.4-0.9,0.9-1c0.5,0,0.9,0.4,1,0.9c0,0,0,0,0,0l0,0l0,1.2l0,0
		c0,0.5-0.4,0.9-0.9,0.9C134,296,133.6,295.6,133.6,295.1z"/>
	<path fill="#FFFFFF" d="M133.5,291l0-1.2c0-0.5,0.4-1,1-1c0.5,0,1,0.4,1,1c0,0,0,0,0,0l0,0l0,1.2l0,0c0,0.5-0.4,0.9-1,0.9
		C133.9,291.9,133.5,291.5,133.5,291z"/>
	<path fill="#FFFFFF" d="M133.6,286.8l0.1-1.2c0-0.5,0.5-1,1-0.9c0.5,0,1,0.5,0.9,1c0,0,0,0,0,0l0,0l-0.1,1.2l0,0
		c0,0.5-0.5,0.9-1,0.9C134,287.8,133.6,287.4,133.6,286.8z"/>
	<path fill="#FFFFFF" d="M133.9,282.7l0.1-1.2c0.1-0.6,0.5-1,1.1-0.9c0.6,0.1,1,0.5,0.9,1.1c0,0,0,0,0,0l0,0l-0.1,1.2l0,0
		c-0.1,0.6-0.6,1-1.1,0.9C134.2,283.7,133.8,283.2,133.9,282.7z"/>
	<path fill="#FFFFFF" d="M134.3,278.5l0.2-1.2c0.1-0.6,0.6-1,1.2-0.9c0.6,0.1,1,0.6,0.9,1.2c0,0,0,0,0,0l0,0l-0.2,1.2l0,0
		c-0.1,0.6-0.6,1-1.2,0.9C134.7,279.6,134.3,279.1,134.3,278.5z"/>
	<path fill="#FFFFFF" d="M135,274.4l0.2-1.2c0.1-0.6,0.7-1,1.3-0.9c0.6,0.1,1,0.7,0.9,1.3c0,0,0,0,0,0l0,0l-0.2,1.2l0,0
		c-0.1,0.6-0.7,1-1.3,0.8C135.3,275.5,134.9,275,135,274.4z"/>
	<path fill="#FFFFFF" d="M135.8,270.3l0.3-1.2c0.1-0.6,0.7-1,1.3-0.8c0.6,0.1,1,0.7,0.8,1.3l0,0l0,0l-0.3,1.2l0,0
		c-0.1,0.6-0.7,0.9-1.3,0.8C136.1,271.5,135.7,270.9,135.8,270.3z"/>
	<path fill="#FFFFFF" d="M136.9,266.3l0.4-1.2c0.2-0.6,0.8-0.9,1.4-0.8c0.6,0.2,0.9,0.8,0.8,1.4l0,0l0,0l-0.4,1.2l0,0
		c-0.2,0.6-0.8,0.9-1.4,0.7C137,267.5,136.7,266.9,136.9,266.3z"/>
	<path fill="#FFFFFF" d="M138.1,262.3l0.4-1.2c0.2-0.6,0.9-0.9,1.4-0.7c0.6,0.2,0.9,0.9,0.7,1.4l0,0l0,0l-0.4,1.1l0,0
		c-0.2,0.6-0.9,0.9-1.4,0.7C138.2,263.5,137.9,262.9,138.1,262.3z"/>
	<path fill="#FFFFFF" d="M139.6,258.4l0.5-1.2c0.2-0.6,0.9-0.9,1.5-0.6c0.6,0.2,0.9,0.9,0.6,1.5l0,0l0,0l-0.5,1.1l0,0
		c-0.2,0.6-0.9,0.8-1.5,0.6C139.6,259.6,139.4,259,139.6,258.4z"/>
	<path fill="#FFFFFF" d="M141.3,254.6l0.5-1.1c0.3-0.6,1-0.8,1.5-0.5c0.6,0.3,0.8,1,0.5,1.5l0,0l0,0l-0.5,1.1l0,0
		c-0.3,0.6-1,0.8-1.5,0.5C141.2,255.8,141,255.1,141.3,254.6z"/>
	<path fill="#FFFFFF" d="M143.2,250.8l0.6-1.1c0.3-0.6,1-0.8,1.6-0.5c0.6,0.3,0.8,1,0.5,1.6l0,0l0,0l-0.6,1.1l0,0
		c-0.3,0.6-1,0.8-1.6,0.4C143.1,252.1,142.9,251.4,143.2,250.8z"/>
	<path fill="#FFFFFF" d="M145.3,247.2l0.7-1.1c0.4-0.6,1.1-0.7,1.6-0.4c0.6,0.4,0.7,1.1,0.4,1.6l0,0l0,0l-0.7,1l0,0
		c-0.4,0.5-1.1,0.7-1.6,0.3C145.1,248.5,145,247.8,145.3,247.2z"/>
	<path fill="#FFFFFF" d="M147.7,243.7l0.8-1c0.4-0.5,1.1-0.6,1.7-0.2c0.5,0.4,0.6,1.1,0.2,1.7l0,0l0,0l-0.7,1l0,0
		c-0.4,0.5-1.1,0.6-1.7,0.2C147.4,245,147.3,244.3,147.7,243.7z"/>
	<path fill="#FFFFFF" d="M150.2,240.4l0.8-1c0.4-0.5,1.2-0.6,1.7-0.1c0.5,0.4,0.6,1.2,0.1,1.7l0,0l0,0l-0.8,0.9l0,0
		c-0.4,0.5-1.2,0.6-1.7,0.1C149.9,241.7,149.8,240.9,150.2,240.4z"/>
	<path fill="#FFFFFF" d="M153.1,237.3l0.9-0.9c0.5-0.5,1.2-0.5,1.7,0c0.5,0.5,0.5,1.2,0,1.7l0,0l0,0l-0.8,0.9l0,0
		c-0.5,0.5-1.2,0.5-1.7,0C152.6,238.6,152.6,237.8,153.1,237.3z"/>
	<path fill="#FFFFFF" d="M156.1,234.4l0.9-0.8c0.5-0.4,1.3-0.4,1.7,0.1c0.4,0.5,0.4,1.3-0.1,1.7l0,0l0,0l-0.9,0.8l0,0
		c-0.5,0.4-1.3,0.4-1.7-0.1C155.5,235.6,155.6,234.8,156.1,234.4z"/>
	<path fill="#FFFFFF" d="M159.3,231.7l1-0.8c0.5-0.4,1.3-0.3,1.7,0.2c0.4,0.5,0.3,1.3-0.2,1.7l0,0l0,0l-1,0.7l0,0
		c-0.5,0.4-1.3,0.3-1.7-0.2C158.6,232.9,158.7,232.1,159.3,231.7z"/>
	<path fill="#FFFFFF" d="M162.7,229.2l1-0.7c0.6-0.4,1.3-0.2,1.7,0.3c0.4,0.6,0.2,1.3-0.3,1.7l0,0l0,0l-1,0.7l0,0
		c-0.6,0.4-1.3,0.2-1.7-0.3C162,230.3,162.1,229.6,162.7,229.2z"/>
	<path fill="#FFFFFF" d="M166.2,227l1.1-0.6c0.6-0.3,1.3-0.1,1.7,0.5c0.3,0.6,0.1,1.3-0.5,1.7l0,0l0,0l-1.1,0.6l0,0
		c-0.6,0.3-1.3,0.1-1.7-0.5C165.4,228,165.6,227.3,166.2,227z"/>
	<path fill="#FFFFFF" d="M169.9,225l1.1-0.6c0.6-0.3,1.4,0,1.7,0.6c0.3,0.6,0,1.4-0.6,1.7l0,0l0,0l-1.1,0.5l0,0
		c-0.6,0.3-1.4,0-1.7-0.6C169,226,169.3,225.3,169.9,225z"/>
	<path fill="#FFFFFF" d="M173.7,223.2l1.2-0.5c0.6-0.3,1.4,0,1.6,0.7c0.3,0.6,0,1.4-0.7,1.6l0,0l0,0l-1.1,0.5l0,0
		c-0.6,0.3-1.4,0-1.6-0.7C172.8,224.2,173.1,223.4,173.7,223.2z"/>
	<path fill="#FFFFFF" d="M177.6,221.6l1.2-0.4c0.6-0.2,1.4,0.1,1.6,0.8s-0.1,1.4-0.8,1.6l0,0l-1.1,0.4l0,0c-0.6,0.2-1.4-0.1-1.6-0.8
		C176.6,222.6,177,221.9,177.6,221.6L177.6,221.6z"/>
	<path fill="#FFFFFF" d="M181.6,220.3l1.2-0.3c0.7-0.2,1.3,0.2,1.5,0.8c0.2,0.7-0.2,1.3-0.8,1.5l0,0l-1.2,0.3l0,0
		c-0.7,0.2-1.3-0.2-1.5-0.8C180.6,221.2,180.9,220.5,181.6,220.3L181.6,220.3z"/>
	<path fill="#FFFFFF" d="M185.6,219.2l1.2-0.3c0.7-0.2,1.3,0.3,1.5,0.9c0.2,0.7-0.3,1.3-0.9,1.5l0,0l-1.2,0.3l0,0
		c-0.7,0.2-1.3-0.3-1.5-0.9C184.6,220.1,185,219.4,185.6,219.2L185.6,219.2z"/>
	<path fill="#FFFFFF" d="M189.7,218.4l1.2-0.2c0.7-0.1,1.3,0.3,1.4,1c0.1,0.7-0.3,1.3-1,1.4l0,0l-1.2,0.2l0,0
		c-0.7,0.1-1.3-0.3-1.4-1C188.6,219.1,189,218.5,189.7,218.4L189.7,218.4z"/>
	<path fill="#FFFFFF" d="M193.8,217.7l1.2-0.2c0.7-0.1,1.3,0.4,1.4,1.1s-0.4,1.3-1.1,1.4l0,0l-1.2,0.2l0,0c-0.7,0.1-1.3-0.4-1.4-1.1
		C192.7,218.4,193.2,217.8,193.8,217.7L193.8,217.7z"/>
	<path fill="#FFFFFF" d="M198,217.2l1.3-0.1c0.7-0.1,1.3,0.4,1.3,1.1c0.1,0.7-0.4,1.3-1.1,1.3l0,0l-1.2,0.1l0,0
		c-0.7,0.1-1.3-0.4-1.3-1.1C196.8,217.9,197.3,217.3,198,217.2L198,217.2z"/>
	<path fill="#FFFFFF" d="M202.2,217l1.3,0c0.7,0,1.2,0.5,1.2,1.2c0,0.7-0.5,1.2-1.2,1.2l0,0l-1.2,0l0,0c-0.7,0-1.2-0.5-1.3-1.2
		C201,217.6,201.5,217,202.2,217L202.2,217z"/>
	<path fill="#FFFFFF" d="M206.3,216.9l1.3,0c0.7,0,1.2,0.6,1.2,1.2c0,0.7-0.6,1.2-1.2,1.2l0,0l-1.2,0l0,0c-0.7,0-1.2-0.5-1.2-1.2
		C205.1,217.4,205.7,216.9,206.3,216.9L206.3,216.9z"/>
	<path fill="#FFFFFF" d="M210.5,217l1.2,0.1c0.7,0,1.2,0.6,1.1,1.3c0,0.7-0.6,1.2-1.3,1.1l0,0l-1.2-0.1l0,0c-0.7,0-1.2-0.6-1.1-1.3
		C209.3,217.5,209.8,217,210.5,217L210.5,217z"/>
	<path fill="#FFFFFF" d="M214.7,217.3l1.2,0.1c0.7,0.1,1.1,0.6,1.1,1.3c-0.1,0.7-0.6,1.1-1.3,1.1l0,0l-1.2-0.1l0,0
		c-0.7-0.1-1.1-0.6-1.1-1.3C213.4,217.7,214,217.2,214.7,217.3L214.7,217.3z"/>
	<path fill="#FFFFFF" d="M218.8,217.7l1.2,0.2c0.6,0.1,1.1,0.7,1,1.3c-0.1,0.6-0.7,1.1-1.3,1l0,0l-1.2-0.2l0,0
		c-0.7-0.1-1.1-0.7-1-1.3C217.6,218.1,218.1,217.7,218.8,217.7L218.8,217.7z"/>
	<path fill="#FFFFFF" d="M222.9,218.3l1.2,0.2c0.6,0.1,1.1,0.7,1,1.4c-0.1,0.6-0.7,1.1-1.4,1l0,0l-1.2-0.2l0,0
		c-0.6-0.1-1.1-0.7-1-1.4C221.7,218.7,222.3,218.2,222.9,218.3L222.9,218.3z"/>
	<path fill="#FFFFFF" d="M227,219l1.2,0.2c0.6,0.1,1,0.7,0.9,1.4c-0.1,0.6-0.7,1-1.4,0.9l0,0l-1.2-0.2l0,0c-0.6-0.1-1.1-0.7-0.9-1.4
		C225.8,219.3,226.4,218.9,227,219L227,219z"/>
	<path fill="#FFFFFF" d="M231.1,219.9l1.2,0.3c0.6,0.1,1,0.8,0.9,1.4c-0.1,0.6-0.8,1-1.4,0.9l0,0l-1.2-0.3l0,0
		c-0.6-0.1-1-0.8-0.9-1.4C229.8,220.1,230.4,219.7,231.1,219.9L231.1,219.9z"/>
	<path fill="#FFFFFF" d="M235.1,220.9l1.2,0.3c0.6,0.2,1,0.8,0.8,1.4c-0.2,0.6-0.8,1-1.4,0.8l0,0l-1.2-0.3l0,0
		c-0.6-0.2-1-0.8-0.8-1.4C233.9,221.1,234.5,220.7,235.1,220.9L235.1,220.9z"/>
	<path fill="#FFFFFF" d="M239.1,221.9l1.2,0.3c0.6,0.2,1,0.8,0.8,1.4c-0.2,0.6-0.8,1-1.4,0.8l0,0l-1.2-0.3l0,0
		c-0.6-0.2-1-0.8-0.8-1.4C237.9,222.1,238.5,221.8,239.1,221.9L239.1,221.9z"/>
	<path fill="#FFFFFF" d="M243.1,223.1l1.2,0.4c0.6,0.2,0.9,0.8,0.8,1.4c-0.2,0.6-0.8,0.9-1.4,0.8l0,0l-1.2-0.4l0,0
		c-0.6-0.2-0.9-0.8-0.8-1.4C241.8,223.3,242.5,222.9,243.1,223.1L243.1,223.1z"/>
	<path fill="#FFFFFF" d="M247.1,224.4l1.2,0.4c0.6,0.2,0.9,0.9,0.7,1.5s-0.9,0.9-1.5,0.7l0,0l-1.2-0.4l0,0c-0.6-0.2-0.9-0.8-0.7-1.5
		C245.8,224.5,246.4,224.2,247.1,224.4L247.1,224.4z"/>
	<path fill="#FFFFFF" d="M251,225.7l1.2,0.4c0.6,0.2,0.9,0.9,0.7,1.5c-0.2,0.6-0.9,0.9-1.5,0.7l0,0l-1.2-0.4l0,0
		c-0.6-0.2-0.9-0.9-0.7-1.5C249.7,225.8,250.4,225.5,251,225.7L251,225.7z"/>
	<path fill="#FFFFFF" d="M254.9,227.1l1.2,0.4c0.6,0.2,0.9,0.9,0.7,1.5c-0.2,0.6-0.9,0.9-1.5,0.7l0,0l-1.1-0.4l0,0
		c-0.6-0.2-0.9-0.9-0.7-1.5C253.6,227.2,254.3,226.9,254.9,227.1L254.9,227.1z"/>
	<path fill="#FFFFFF" d="M258.7,228.6l1.2,0.5c0.6,0.2,0.9,0.9,0.6,1.5c-0.2,0.6-0.9,0.9-1.5,0.6l0,0l-1.1-0.5l0,0
		c-0.6-0.2-0.9-0.9-0.6-1.5C257.5,228.7,258.1,228.4,258.7,228.6L258.7,228.6z"/>
	<path fill="#FFFFFF" d="M262.5,230.2l1.1,0.5c0.6,0.2,0.8,0.9,0.6,1.5c-0.2,0.6-0.9,0.8-1.5,0.6l0,0l-1.1-0.5l0,0
		c-0.6-0.2-0.8-0.9-0.6-1.5C261.3,230.2,262,230,262.5,230.2L262.5,230.2z"/>
	<path fill="#FFFFFF" d="M266.3,231.8l1.1,0.5c0.6,0.3,0.8,0.9,0.6,1.5c-0.3,0.6-0.9,0.8-1.5,0.6l0,0l-1.1-0.5l0,0
		c-0.6-0.2-0.8-0.9-0.6-1.5C265.1,231.9,265.8,231.6,266.3,231.8L266.3,231.8z"/>
	<path fill="#FFFFFF" d="M270.1,233.5l1.1,0.5c0.6,0.3,0.8,0.9,0.5,1.5c-0.3,0.6-0.9,0.8-1.5,0.5l0,0l-1.1-0.5l0,0
		c-0.6-0.3-0.8-0.9-0.5-1.5C268.9,233.5,269.6,233.3,270.1,233.5L270.1,233.5z"/>
	<path fill="#FFFFFF" d="M273.9,235.3l1.1,0.5c0.5,0.3,0.8,0.9,0.5,1.5c-0.3,0.5-0.9,0.8-1.5,0.5l0,0l-1.1-0.5l0,0
		c-0.6-0.3-0.8-0.9-0.5-1.5C272.6,235.3,273.3,235,273.9,235.3L273.9,235.3z"/>
	<path fill="#FFFFFF" d="M277.6,237.1l1.1,0.6c0.5,0.3,0.8,0.9,0.5,1.5c-0.3,0.5-0.9,0.8-1.5,0.5l0,0l-1.1-0.6l0,0
		c-0.5-0.3-0.8-0.9-0.5-1.5S277,236.9,277.6,237.1L277.6,237.1z"/>
	<path fill="#FFFFFF" d="M281.2,239l1.1,0.6c0.5,0.3,0.7,0.9,0.5,1.5c-0.3,0.5-0.9,0.7-1.5,0.5l0,0l-1.1-0.6l0,0
		c-0.5-0.3-0.7-0.9-0.5-1.5C280,239,280.7,238.7,281.2,239L281.2,239z"/>
	<path fill="#FFFFFF" d="M284.9,241l1.1,0.6c0.5,0.3,0.7,0.9,0.4,1.4c-0.3,0.5-0.9,0.7-1.4,0.4l0,0l-1.1-0.6l0,0
		c-0.5-0.3-0.7-0.9-0.4-1.4C283.7,240.9,284.4,240.7,284.9,241L284.9,241z"/>
	<path fill="#FFFFFF" d="M288.5,243l1.1,0.6c0.5,0.3,0.7,0.9,0.4,1.4c-0.3,0.5-0.9,0.7-1.4,0.4l0,0l-1.1-0.6l0,0
		c-0.5-0.3-0.7-0.9-0.4-1.4C287.3,242.9,288,242.7,288.5,243L288.5,243z"/>
	<path fill="#FFFFFF" d="M292.1,245l1.1,0.6c0.5,0.3,0.7,0.9,0.4,1.4c-0.3,0.5-0.9,0.7-1.4,0.4l0,0l-1.1-0.6l0,0
		c-0.5-0.3-0.7-0.9-0.4-1.4C291,244.9,291.6,244.7,292.1,245L292.1,245z"/>
	<path fill="#FFFFFF" d="M295.7,247.1l1.1,0.6c0.5,0.3,0.6,0.9,0.3,1.4c-0.3,0.5-0.9,0.6-1.4,0.4l0,0l-1.1-0.6l0,0
		c-0.5-0.3-0.6-0.9-0.4-1.4C294.5,247,295.2,246.8,295.7,247.1L295.7,247.1z"/>
	<path fill="#FFFFFF" d="M299.2,249.3l1.1,0.7c0.5,0.3,0.6,0.9,0.3,1.4c-0.3,0.5-0.9,0.6-1.4,0.3l0,0l-1.1-0.6l0,0
		c-0.5-0.3-0.6-0.9-0.3-1.4C298.1,249.1,298.7,249,299.2,249.3L299.2,249.3z"/>
	<path fill="#FFFFFF" d="M302.7,251.4l1,0.7c0.5,0.3,0.6,0.9,0.3,1.3c-0.3,0.5-0.9,0.6-1.3,0.3l0,0l-1-0.6l0,0
		c-0.5-0.3-0.6-0.9-0.3-1.3C301.6,251.3,302.2,251.2,302.7,251.4L302.7,251.4z"/>
	<path fill="#FFFFFF" d="M306.2,253.7l1,0.7c0.4,0.3,0.6,0.9,0.3,1.3c-0.3,0.4-0.9,0.6-1.3,0.3l0,0l-1-0.7l0,0
		c-0.4-0.3-0.6-0.9-0.3-1.3C305.1,253.5,305.7,253.4,306.2,253.7L306.2,253.7z"/>
	<path fill="#FFFFFF" d="M309.6,255.9l1,0.7c0.4,0.3,0.5,0.9,0.3,1.3c-0.3,0.4-0.9,0.5-1.3,0.3l0,0l-1-0.7l0,0
		c-0.4-0.3-0.6-0.9-0.3-1.3C308.6,255.8,309.2,255.6,309.6,255.9L309.6,255.9z"/>
	<path fill="#FFFFFF" d="M313.1,258.2l1,0.7c0.4,0.3,0.5,0.9,0.2,1.3c-0.3,0.4-0.8,0.5-1.3,0.3l0,0l-1-0.7l0,0
		c-0.4-0.3-0.5-0.9-0.3-1.3C312.1,258,312.6,257.9,313.1,258.2L313.1,258.2z"/>
	<path fill="#FFFFFF" d="M316.5,260.5l1,0.7c0.4,0.3,0.5,0.8,0.2,1.3c-0.3,0.4-0.8,0.5-1.2,0.2l0,0l-1-0.7l0,0
		c-0.4-0.3-0.5-0.8-0.2-1.3S316.1,260.3,316.5,260.5L316.5,260.5z"/>
	<path fill="#FFFFFF" d="M319.9,262.9l1,0.7c0.4,0.3,0.5,0.8,0.2,1.2c-0.3,0.4-0.8,0.5-1.2,0.2l0,0l-1-0.7l0,0
		c-0.4-0.3-0.5-0.8-0.2-1.2C318.9,262.7,319.5,262.6,319.9,262.9L319.9,262.9z"/>
	<path fill="#FFFFFF" d="M323.2,265.3l1,0.7c0.4,0.3,0.5,0.8,0.2,1.2c-0.3,0.4-0.8,0.5-1.2,0.2l-1-0.7c-0.4-0.3-0.5-0.8-0.2-1.2
		C322.3,265.1,322.8,265,323.2,265.3L323.2,265.3z"/>
	<path fill="#FFFFFF" d="M326.6,267.7l1,0.7c0.4,0.3,0.5,0.8,0.2,1.2c-0.3,0.4-0.8,0.5-1.2,0.2l-1-0.7c-0.4-0.3-0.5-0.8-0.2-1.2
		C325.7,267.5,326.2,267.4,326.6,267.7L326.6,267.7z"/>
	<path fill="#FFFFFF" d="M329.9,270.1l1,0.7c0.4,0.3,0.5,0.8,0.2,1.2c-0.3,0.4-0.8,0.5-1.2,0.2l-1-0.7c-0.4-0.3-0.5-0.8-0.2-1.2
		C329,269.9,329.5,269.8,329.9,270.1L329.9,270.1z"/>
	<path fill="#FFFFFF" d="M333.3,272.5l1,0.7l0,0c0.4,0.3,0.4,0.8,0.2,1.1c-0.3,0.4-0.8,0.4-1.1,0.2l-1-0.7c-0.4-0.3-0.5-0.8-0.2-1.1
		C332.4,272.3,332.9,272.3,333.3,272.5L333.3,272.5z"/>
	<path fill="#FFFFFF" d="M336.6,274.9l1,0.7l0,0c0.4,0.3,0.4,0.7,0.2,1.1c-0.2,0.4-0.7,0.4-1.1,0.2l-1-0.7c-0.4-0.2-0.5-0.7-0.2-1.1
		C335.7,274.7,336.2,274.6,336.6,274.9L336.6,274.9L336.6,274.9z"/>
	<path fill="#FFFFFF" d="M340,277.2l1,0.7l0,0c0.4,0.2,0.4,0.7,0.2,1.1c-0.2,0.4-0.7,0.4-1.1,0.2l-1-0.7c-0.4-0.2-0.5-0.7-0.2-1.1
		C339.1,277.1,339.6,277,340,277.2L340,277.2L340,277.2z"/>
	<path fill="#FFFFFF" d="M343.4,279.5l1,0.7l0,0c0.4,0.2,0.5,0.7,0.2,1c-0.2,0.3-0.7,0.5-1,0.2l-1.1-0.7c-0.4-0.2-0.5-0.7-0.2-1
		C342.6,279.4,343,279.3,343.4,279.5L343.4,279.5L343.4,279.5z"/>
	<path fill="#FFFFFF" d="M346.9,281.7l1.1,0.6l0,0c0.3,0.2,0.5,0.7,0.2,1c-0.2,0.3-0.6,0.5-1,0.3l-1.1-0.6c-0.4-0.2-0.5-0.7-0.3-1
		C346.1,281.6,346.5,281.5,346.9,281.7C346.9,281.7,346.9,281.7,346.9,281.7L346.9,281.7z"/>
	<path fill="#FFFFFF" d="M350.4,283.7l1.1,0.6l0,0c0.3,0.2,0.5,0.6,0.3,0.9c-0.2,0.3-0.6,0.5-0.9,0.3l-1.1-0.6
		c-0.3-0.2-0.5-0.6-0.3-1C349.6,283.7,350.1,283.6,350.4,283.7C350.4,283.7,350.4,283.7,350.4,283.7L350.4,283.7z"/>
	<path fill="#FFFFFF" d="M354,285.7l1.1,0.5l0,0c0.3,0.2,0.5,0.6,0.3,0.9c-0.2,0.3-0.6,0.5-0.9,0.3l-1.1-0.5
		c-0.3-0.2-0.5-0.6-0.3-0.9C353.3,285.6,353.7,285.5,354,285.7C354,285.7,354,285.7,354,285.7L354,285.7z"/>
	<path fill="#FFFFFF" d="M357.7,287.4l1.1,0.5l0,0c0.3,0.1,0.5,0.5,0.3,0.8c-0.1,0.3-0.5,0.5-0.8,0.3l-1.1-0.5
		c-0.3-0.1-0.5-0.5-0.3-0.8C357,287.4,357.4,287.3,357.7,287.4C357.7,287.4,357.7,287.4,357.7,287.4L357.7,287.4z"/>
	<path fill="#FFFFFF" d="M361.5,289l1.1,0.4l0,0c0.3,0.1,0.5,0.5,0.4,0.8c-0.1,0.3-0.5,0.5-0.8,0.4l-1.2-0.4
		c-0.3-0.1-0.5-0.5-0.4-0.8C360.8,289.1,361.1,288.9,361.5,289C361.5,289,361.5,289,361.5,289L361.5,289z"/>
	<path fill="#FFFFFF" d="M365.3,290.3l1.2,0.3l0,0c0.3,0.1,0.5,0.4,0.4,0.7c-0.1,0.3-0.4,0.5-0.7,0.4l-1.2-0.3
		c-0.3-0.1-0.5-0.4-0.4-0.7C364.7,290.4,365,290.3,365.3,290.3C365.3,290.3,365.3,290.3,365.3,290.3L365.3,290.3z"/>
	<path fill="#FFFFFF" d="M369.3,291.4l1.2,0.3l0,0c0.3,0.1,0.5,0.4,0.4,0.7c-0.1,0.3-0.4,0.5-0.6,0.4l-1.2-0.3
		c-0.3-0.1-0.5-0.4-0.4-0.7C368.6,291.5,368.9,291.4,369.3,291.4C369.2,291.4,369.2,291.4,369.3,291.4L369.3,291.4z"/>
	<path fill="#FFFFFF" d="M373.3,292.2l1.2,0.2l0,0c0.3,0,0.5,0.3,0.4,0.6c0,0.3-0.3,0.5-0.6,0.4l-1.2-0.2c-0.3,0-0.5-0.3-0.4-0.6
		C372.7,292.4,373,292.2,373.3,292.2C373.2,292.2,373.2,292.2,373.3,292.2L373.3,292.2z"/>
	<path fill="#FFFFFF" d="M377.3,292.7l1.2,0.1l0,0c0.3,0,0.5,0.3,0.4,0.5c0,0.3-0.2,0.5-0.5,0.4l-1.2-0.1c-0.3,0-0.5-0.2-0.5-0.5
		C376.8,292.9,377,292.7,377.3,292.7C377.3,292.7,377.3,292.7,377.3,292.7L377.3,292.7z"/>
	<path fill="#FFFFFF" d="M381.4,292.9l1.2,0l0,0c0.3,0,0.5,0.2,0.5,0.5c0,0.2-0.2,0.5-0.4,0.5l-1.2,0c-0.3,0-0.5-0.2-0.5-0.5
		C380.9,293.1,381.1,292.9,381.4,292.9C381.4,292.9,381.4,292.9,381.4,292.9L381.4,292.9z"/>
	<path fill="#FFFFFF" d="M385.5,292.7l1.2-0.1l0,0c0.2,0,0.4,0.1,0.5,0.4c0,0.2-0.1,0.4-0.4,0.5l-1.2,0.1c-0.2,0-0.5-0.1-0.5-0.4
		C385,293,385.2,292.8,385.5,292.7C385.4,292.7,385.4,292.7,385.5,292.7L385.5,292.7z"/>
	<path fill="#FFFFFF" d="M389.5,292.2l1.2-0.2l0,0c0.2,0,0.4,0.1,0.5,0.3c0,0.2-0.1,0.4-0.3,0.5l-1.2,0.3c-0.2,0-0.4-0.1-0.5-0.3
		C389.1,292.5,389.3,292.2,389.5,292.2C389.5,292.2,389.5,292.2,389.5,292.2L389.5,292.2z"/>
	<path fill="#FFFFFF" d="M393.5,291.3l1.2-0.4l0,0c0.2-0.1,0.4,0,0.4,0.2c0.1,0.2,0,0.4-0.2,0.4l-1.2,0.4c-0.2,0.1-0.4,0-0.5-0.2
		C393.2,291.5,393.3,291.3,393.5,291.3C393.5,291.3,393.5,291.3,393.5,291.3L393.5,291.3z"/>
	<path fill="#FFFFFF" d="M397.3,289.9l1.1-0.5l0,0c0.2-0.1,0.3,0,0.4,0.2c0.1,0.2,0,0.3-0.2,0.4l-1.1,0.5c-0.2,0.1-0.4,0-0.4-0.2
		C397.1,290.2,397.2,290,397.3,289.9C397.3,289.9,397.3,289.9,397.3,289.9L397.3,289.9z"/>
	<path fill="#FFFFFF" d="M401,288.2l1.1-0.6l0,0c0.1-0.1,0.3,0,0.4,0.1c0.1,0.1,0,0.3-0.1,0.4l-1.1,0.7c-0.1,0.1-0.3,0-0.4-0.1
		C400.8,288.4,400.9,288.2,401,288.2C401,288.2,401,288.2,401,288.2L401,288.2z"/>
</g>
<g>
	<text transform="matrix(1 0 0 1 454.629 178.5518)" fill="#F0C11B" font-family="'BebasKai'" font-size="26.6368">EXCEDANT</text>
</g>
<g>
	<text transform="matrix(1 0 0 1 267.9984 492.3717)" fill="#FFFFFF" font-family="'BebasKai'" font-size="50.0983">BAGAGES</text>
</g>
</svg>
