<?xml version="1.0" encoding="utf-8"?>
<!-- Generator: Adobe Illustrator 18.1.1, SVG Export Plug-In . SVG Version: 6.00 Build 0)  -->
<svg version="1.1" id="Layer_1" xmlns="http://www.w3.org/2000/svg" xmlns:xlink="http://www.w3.org/1999/xlink" x="0px" y="0px"
	 viewBox="0 0 190 150" enable-background="new 0 0 190 150" xml:space="preserve">
<g>
	<path fill="#005D9C" d="M21.2,62.6L21.2,62.6c-0.5,2.7,1.4,5.2,4.2,5.9c0.2,0,0.4,0.1,0.5,0.1L90,86c0.5,0.1,1,0.2,1.4,0.2
		l66.2,4.4c0.2,0,0.4,0,0.6,0.1c2.9,0.3,5.5-1.5,5.9-4.1l0,0"/>
	<path fill="#005D9C" d="M67.6,110.7h50c0.1,0,0.3-0.1,0.3-0.3V105c0-0.1-0.1-0.3-0.3-0.3h-50c-0.1,0-0.3,0.1-0.3,0.3l0,5.4
		C67.4,110.5,67.5,110.7,67.6,110.7z"/>
	<path fill="#005D9C" d="M108.5,103.7L108.5,103.7c0-2.6-2.1-4.7-4.7-4.7H81.5c-2.6,0-4.7,2.1-4.7,4.7l0,0H108.5z"/>
	<path fill="#FFFFFF" d="M84.2,74.2c-9,12.1,4.5,25.6,16.6,16.6c0.1-0.1,0.2-0.2,0.3-0.3c9-12.1-4.5-25.6-16.6-16.6
		C84.4,74,84.3,74.1,84.2,74.2z"/>
	<g>
		<path fill="#005D9C" d="M82.9,82.4c0-5.6,4.7-10.1,10.4-9.7c4.8,0.3,8.6,4.2,9,9c0.2,2.2-0.4,4.3-1.5,6c-1,1.5-1.6,3.2-1.8,5
			l-0.2,2.8c-0.1,1.6-1.4,2.8-3,2.8h-6.3c-1.6,0-2.9-1.2-3-2.8l-0.2-2.8c-0.2-1.8-0.8-3.5-1.8-5C83.5,86.1,82.9,84.3,82.9,82.4z"/>
		<path fill="#FFFFFF" d="M90.1,79.9c-2.7,3.6,1.4,7.7,5,5c0.1,0,0.1-0.1,0.1-0.1c2.7-3.6-1.4-7.7-5-5
			C90.1,79.8,90.1,79.9,90.1,79.9z"/>
	</g>
	<g>
		<path fill="#FFFFFF" d="M25.5,61.5c-2,2.7,1,5.7,3.7,3.7c0,0,0.1-0.1,0.1-0.1c2-2.7-1-5.7-3.7-3.7C25.6,61.4,25.5,61.4,25.5,61.5z
			"/>
		<g>
			<g>
				<path fill="#005D9C" d="M48.5,53.6c-1.6,4.5-10.4,7.9-21.1,7.9c-10.7,0-19.5-3.4-21.1-7.9H48.5z"/>
			</g>
			<path fill="#005D9C" d="M6.4,52.8h42c0.6,0,1.1-0.5,1.1-1.1l0,0c0-0.6-0.5-1.1-1.1-1.1h-42c-0.6,0-1.1,0.5-1.1,1.1l0,0
				C5.4,52.4,5.9,52.8,6.4,52.8z"/>
		</g>
		<path fill="#005D9C" d="M25.6,65.2h3.7c0.1,0,0.2-0.1,0.2-0.2v-5.6c0-0.1-0.1-0.2-0.2-0.2h-3.7c-0.1,0-0.2,0.1-0.2,0.2V65
			C25.4,65.1,25.5,65.2,25.6,65.2z"/>
		<circle fill="#FFFFFF" cx="27.4" cy="63.1" r="0.6"/>
	</g>
	<g>
		<path fill="#FFFFFF" d="M155.8,83.9c-2,2.7,1,5.7,3.7,3.7c0,0,0.1-0.1,0.1-0.1c2-2.7-1-5.7-3.7-3.7
			C155.9,83.8,155.8,83.9,155.8,83.9z"/>
		<g>
			<g>
				<path fill="#005D9C" d="M178.8,76.1c-1.6,4.5-10.4,7.9-21.1,7.9c-10.7,0-19.5-3.4-21.1-7.9H178.8z"/>
			</g>
			<path fill="#005D9C" d="M136.7,75.3h42c0.6,0,1.1-0.5,1.1-1.1l0,0c0-0.6-0.5-1.1-1.1-1.1h-42c-0.6,0-1.1,0.5-1.1,1.1l0,0
				C135.7,74.8,136.1,75.3,136.7,75.3z"/>
		</g>
		<path fill="#005D9C" d="M155.9,87.7h3.7c0.1,0,0.2-0.1,0.2-0.2v-5.6c0-0.1-0.1-0.2-0.2-0.2h-3.7c-0.1,0-0.2,0.1-0.2,0.2v5.6
			C155.7,87.6,155.8,87.7,155.9,87.7z"/>
		<circle fill="#FFFFFF" cx="157.7" cy="85.5" r="0.6"/>
	</g>
	<g>
		<path fill="#005D9C" d="M160.8,48.2l-11.5,11.5v2l13.5-13.5H160.8z M160.8,48.2"/>
		<path fill="#005D9C" d="M153.3,65h2l10.9-10.9v-2L153.3,65z M153.3,65"/>
		<path fill="#005D9C" d="M146,44.2c0,0.4-0.3,0.7-0.7,0.7c-0.4,0-0.7-0.3-0.7-0.7c0-0.4,0.3-0.7,0.7-0.7
			C145.7,43.5,146,43.8,146,44.2L146,44.2z M146,44.2"/>
		<path fill="#005D9C" d="M170.9,44.2c0,0.4-0.3,0.7-0.7,0.7c-0.4,0-0.7-0.3-0.7-0.7c0-0.4,0.3-0.7,0.7-0.7
			C170.5,43.5,170.9,43.8,170.9,44.2L170.9,44.2z M170.9,44.2"/>
		<path fill="#005D9C" d="M170.9,69c0,0.4-0.3,0.7-0.7,0.7c-0.4,0-0.7-0.3-0.7-0.7c0-0.4,0.3-0.7,0.7-0.7
			C170.5,68.3,170.9,68.6,170.9,69L170.9,69z M170.9,69"/>
		<path fill="#005D9C" d="M146,69c0,0.4-0.3,0.7-0.7,0.7c-0.4,0-0.7-0.3-0.7-0.7c0-0.4,0.3-0.7,0.7-0.7C145.7,68.3,146,68.6,146,69
			L146,69z M146,69"/>
		<path fill="#005D9C" d="M173.4,40.2H142c-0.4,0-0.7,0.3-0.7,0.7v31.4c0,0.4,0.3,0.7,0.7,0.7h31.4c0.4,0,0.7-0.3,0.7-0.7V40.9
			C174.1,40.5,173.8,40.2,173.4,40.2L173.4,40.2z M149.3,65V48.2h16.8V65H149.3z M166.2,66.4v5.2h-16.8v-5.2H166.2z M147.9,65h-5.2
			V48.2h5.2V65z M149.3,46.7v-5.2h16.8v5.2H149.3z M167.6,48.2h5.2V65h-5.2V48.2z M172.7,41.6v5.2h-5.2v-5.2H172.7z M142.7,41.6h5.2
			v5.2h-5.2V41.6z M142.7,71.6v-5.2h5.2v5.2H142.7z M172.7,71.6h-5.2v-5.2h5.2V71.6z M172.7,71.6"/>
	</g>
</g>
</svg>
