<?xml version="1.0" encoding="utf-8"?>
<!-- Generator: Adobe Illustrator 18.1.1, SVG Export Plug-In . SVG Version: 6.00 Build 0)  -->
<svg version="1.1" id="Layer_1" xmlns="http://www.w3.org/2000/svg" xmlns:xlink="http://www.w3.org/1999/xlink" x="0px" y="0px"
	 viewBox="0 0 190 150" enable-background="new 0 0 190 150" xml:space="preserve">
<g>
	<radialGradient id="SVGID_1_" cx="151.1973" cy="75.5285" r="5.3004" gradientUnits="userSpaceOnUse">
		<stop  offset="0" style="stop-color:#226BA0"/>
		<stop  offset="1" style="stop-color:#196096"/>
	</radialGradient>
	<path fill="url(#SVGID_1_)" d="M154.2,75.3c1.6-1.6,1.6-3.2,0-4.8c-1.6-1.6-3.2-1.6-4.8,0l-2.4,2.4l0.8,8.8L154.2,75.3z"/>
	<radialGradient id="SVGID_2_" cx="152.7988" cy="102.2545" r="5.126" gradientUnits="userSpaceOnUse">
		<stop  offset="0" style="stop-color:#226BA0"/>
		<stop  offset="1" style="stop-color:#196096"/>
	</radialGradient>
	<path fill="url(#SVGID_2_)" d="M151,96.9l-2.4,2.4l0.8,8.8l6.4-6.4c1.6-1.6,1.6-3.2,0-4.8C155,96.1,152.6,96.1,151,96.9L151,96.9z"
		/>
	<radialGradient id="SVGID_3_" cx="89.9377" cy="13.4682" r="5.3004" gradientUnits="userSpaceOnUse">
		<stop  offset="0" style="stop-color:#226BA0"/>
		<stop  offset="1" style="stop-color:#196096"/>
	</radialGradient>
	<path fill="url(#SVGID_3_)" d="M94.9,15.3c1.6-1.6,1.6-3.2,0-4.8c-1.6-1.6-3.2-1.6-4.8,0l-6.4,6.4l8.8,0.8L94.9,15.3z"/>
	<g>
		<radialGradient id="SVGID_4_" cx="63.9124" cy="12.267" r="5.2396" gradientUnits="userSpaceOnUse">
			<stop  offset="0" style="stop-color:#226BA0"/>
			<stop  offset="1" style="stop-color:#196096"/>
		</radialGradient>
		<path fill="url(#SVGID_4_)" d="M68.5,13.7c1.6-1.6,1.6-3.2,0-4.8c-1.6-1.6-3.2-1.6-4.8,0l-5.6,7.2l8.8,0.8L68.5,13.7z"/>
		<radialGradient id="SVGID_5_" cx="88.9175" cy="75.7287" r="73.8646" gradientUnits="userSpaceOnUse">
			<stop  offset="0" style="stop-color:#226BA0"/>
			<stop  offset="1" style="stop-color:#196096"/>
		</radialGradient>
		<path fill="url(#SVGID_5_)" d="M155,32.9c7.2-9.6,12-20,4.8-27.2c-2.4-2.4-5.6-3.2-8.8-3.2c-8.8,0-22.4,10.4-27.2,16.8h-1.6
			l-88.1-4.8c-0.8,0-1.6,0-2.4,0.8c-0.8,0.8-0.8,1.6-0.8,2.4v15.2c0,0.8,0.8,2.4,1.6,2.4l47.2,27.2l-5.6,5.6
			c-2.4,2.4-16.8,20.8-20,24L27.7,78.5c-1.6-0.8-2.4,0-4,0.8l-8,8c-1.6,1.6-1.6,3.2,0,4.8L36.5,113l-2.4,3.2l0,0
			c-5.6,7.2-0.8,17.6,8.8,17.6c4.8,0,7.2-2.4,10.4-5.6l20,20c0.8,0.8,1.6,0.8,2.4,0.8s1.6,0,2.4-0.8l8-8c0.8-0.8,0.8-2.4,0.8-4
			l-12-25.6c3.2-3.2,20.8-16.8,24-20l5.6-5.6l26.4,47.2c0.8,0.8,1.6,1.6,2.4,1.6h15.2c0.8,0,1.6,0,2.4-0.8c0.8-0.8,0.8-1.6,0.8-2.4
			l-5.6-87.3l1.6-1.6C147.8,41.7,151,37.7,155,32.9L155,32.9z M37.3,31.3V20.9l79.3,4.8l-32,32L37.3,31.3z M45.3,126.6
			c-4,3.2-9.6-2.4-6.4-6.4l2.4-3.2l6.4,7.2L45.3,126.6z M74.9,141.8c-12.8-12.8-40-40-52.1-52.1l4-4l26.4,13.6L66.9,113l12,24.8
			L74.9,141.8z M93.3,87.3c-2.4,2.4-20,16.8-23.2,19.2L59.7,96.1c2.4-3.2,16.8-20.8,19.2-23.2c5.6-5.6,53.7-54.5,57.7-57.7
			c6.4-4.8,14.4-9.6,19.2-5.6c6.4,7.2-8.8,24-12.8,27.2L93.3,87.3L93.3,87.3z M144.6,129H135l-26.4-47.2l32-32L144.6,129z"/>
	</g>
</g>
</svg>
