<?xml version="1.0" encoding="utf-8"?>
<!-- Generator: Adobe Illustrator 18.1.1, SVG Export Plug-In . SVG Version: 6.00 Build 0)  -->
<svg version="1.1" id="Layer_1" xmlns="http://www.w3.org/2000/svg" xmlns:xlink="http://www.w3.org/1999/xlink" x="0px" y="0px"
	 viewBox="0 0 190 150" enable-background="new 0 0 190 150" xml:space="preserve">
<g>
	
		<radialGradient id="SVGID_1_" cx="-191.9577" cy="457.839" r="3.3928" gradientTransform="matrix(17 0 0 -17 3360 7859.4502)" gradientUnits="userSpaceOnUse">
		<stop  offset="0" style="stop-color:#226BA0"/>
		<stop  offset="1" style="stop-color:#196096"/>
	</radialGradient>
	<path fill="url(#SVGID_1_)" d="M126.7,146.7H66.7c-6.2,0-11.4-5.2-11.4-11.4V17c0-6.2,5.2-11.4,11.4-11.4h59.9
		c6.2,0,11.4,5.2,11.4,11.4v118.3C138.1,141.5,132.9,146.7,126.7,146.7L126.7,146.7z M66.7,11.9c-3.1,0-5.2,2.6-5.2,5.2v118.3
		c0,3.1,2.6,5.2,5.2,5.2h59.9c3.1,0,5.2-2.6,5.2-5.2V17c0-3.1-2.6-5.2-5.2-5.2H66.7z"/>
	
		<radialGradient id="SVGID_2_" cx="-191.966" cy="460.8259" r="0.4379" gradientTransform="matrix(17 0 0 -17 3360 7859.4502)" gradientUnits="userSpaceOnUse">
		<stop  offset="0" style="stop-color:#226BA0"/>
		<stop  offset="1" style="stop-color:#196096"/>
	</radialGradient>
	<path fill="url(#SVGID_2_)" d="M103.4,28.4h-14c-1.6,0-3.1-1.6-3.1-3.1c0-1.6,1.6-3.1,3.1-3.1h14c1.6,0,3.1,1.6,3.1,3.1
		S105.5,28.4,103.4,28.4L103.4,28.4z"/>
	
		<radialGradient id="SVGID_3_" cx="-192.1812" cy="458.2944" r="1.0834" gradientTransform="matrix(17 0 0 -17 3360 7859.4502)" gradientUnits="userSpaceOnUse">
		<stop  offset="0" style="stop-color:#226BA0"/>
		<stop  offset="1" style="stop-color:#196096"/>
	</radialGradient>
	<path fill="url(#SVGID_3_)" d="M107.1,83.2H87.9c-2.1,0-4.1-1.6-4.7-3.6l-5.7-20.2h-3.1c-1.6,0-3.1-1.6-3.1-3.1
		c0-1.6,1.6-3.1,3.1-3.1h4.1c2.1,0,4.1,1.6,4.7,3.6l1.6,5.7h25.3c1,0,2.6,0.5,3.1,1.6c1,1,1,2.1,1,3.6l-2.6,11.9
		C111.2,81.6,109.1,83.2,107.1,83.2L107.1,83.2z M89,77.5H106l2.1-8.3H86.9L89,77.5z"/>
	
		<radialGradient id="SVGID_4_" cx="-192.3962" cy="457.026" r="0.1782" gradientTransform="matrix(17 0 0 -17 3360 7859.4502)" gradientUnits="userSpaceOnUse">
		<stop  offset="0" style="stop-color:#226BA0"/>
		<stop  offset="1" style="stop-color:#196096"/>
	</radialGradient>
	<path fill="url(#SVGID_4_)" d="M92.1,89.9c0,1.6-1.6,3.1-3.1,3.1c-1.6,0-3.1-1.6-3.1-3.1c0-1.6,1.6-3.1,3.1-3.1
		C91,86.8,92.1,88.3,92.1,89.9L92.1,89.9z"/>
	
		<radialGradient id="SVGID_5_" cx="-191.4242" cy="457.026" r="0.1782" gradientTransform="matrix(17 0 0 -17 3360 7859.4502)" gradientUnits="userSpaceOnUse">
		<stop  offset="0" style="stop-color:#226BA0"/>
		<stop  offset="1" style="stop-color:#196096"/>
	</radialGradient>
	<path fill="url(#SVGID_5_)" d="M108.6,89.9c0,1.6-1.6,3.1-3.1,3.1c-1.6,0-3.1-1.6-3.1-3.1c0-1.6,1.6-3.1,3.1-3.1
		C107.6,86.8,108.6,88.3,108.6,89.9L108.6,89.9z"/>
	
		<radialGradient id="SVGID_6_" cx="-191.966" cy="454.8489" r="0.1782" gradientTransform="matrix(17 0 0 -17 3360 7859.4502)" gradientUnits="userSpaceOnUse">
		<stop  offset="0" style="stop-color:#226BA0"/>
		<stop  offset="1" style="stop-color:#196096"/>
	</radialGradient>
	<path fill="url(#SVGID_6_)" d="M99.8,127.1c0,1.6-1.6,3.1-3.1,3.1c-1.6,0-3.1-1.6-3.1-3.1s1.6-3.1,3.1-3.1S99.8,125.5,99.8,127.1
		L99.8,127.1z"/>
</g>
</svg>
