<?xml version="1.0" standalone="no"?>
<!DOCTYPE svg PUBLIC "-//W3C//DTD SVG 20010904//EN"
 "http://www.w3.org/TR/2001/REC-SVG-20010904/DTD/svg10.dtd">
<svg version="1.0" xmlns="http://www.w3.org/2000/svg"
 width="2087.000000pt" height="2087.000000pt" viewBox="0 0 2087.000000 2087.000000"
 preserveAspectRatio="xMidYMid meet">
<metadata>
Created by potrace 1.14, written by Peter Selinger 2001-2017
</metadata>
<g transform="translate(0.000000,2087.000000) scale(0.100000,-0.100000)"
fill="#000000" stroke="none">
<path d="M6347 12211 c-50 -4 -81 -11 -86 -20 -13 -21 -22 -204 -19 -403 2
-124 -1 -181 -9 -189 -9 -9 -28 -2 -80 28 -240 142 -428 197 -678 197 -348 0
-661 -129 -905 -374 -184 -184 -301 -402 -351 -655 -19 -94 -19 -396 0 -490
94 -473 463 -867 924 -985 654 -167 1324 194 1536 826 60 179 61 193 61 1150
0 816 -1 873 -17 892 -16 18 -33 21 -158 25 -77 2 -175 2 -218 -2z m-719 -907
c300 -61 532 -290 597 -588 24 -105 16 -281 -15 -381 -135 -428 -558 -646
-988 -510 -210 67 -388 240 -469 456 -190 505 171 1033 710 1038 48 1 123 -6
165 -15z"/>
<path d="M11988 11828 c-223 -24 -462 -119 -647 -258 -246 -186 -410 -444
-484 -765 -20 -87 -21 -122 -26 -1125 -4 -569 -4 -1053 -1 -1075 4 -34 9 -40
31 -43 17 -2 234 96 670 304 995 473 1269 611 1370 687 245 187 405 441 470
749 29 134 31 381 5 503 -85 398 -328 717 -682 894 -207 104 -477 153 -706
129z m300 -494 c258 -53 473 -224 588 -467 57 -121 69 -183 69 -352 0 -174
-15 -238 -93 -390 -38 -74 -64 -108 -146 -191 -90 -90 -112 -106 -206 -152
-136 -67 -198 -83 -348 -89 -163 -7 -272 17 -422 94 -209 106 -338 245 -410
440 -54 148 -64 340 -25 488 63 242 268 474 508 573 145 61 330 78 485 46z"/>
<path d="M11935 10763 c-93 -47 -178 -94 -188 -104 -16 -17 -17 -38 -15 -206
l3 -188 193 -98 193 -98 -3 201 c-2 128 1 200 7 200 6 0 9 -71 7 -200 -2 -110
-1 -200 3 -200 3 0 91 43 195 95 l190 95 0 195 c0 131 -3 195 -11 195 -5 0 -8
4 -5 8 6 9 -116 72 -140 72 -29 0 -364 -184 -359 -197 2 -7 -2 -13 -10 -13
-12 0 -15 -14 -15 -62 l0 -61 -23 21 c-13 12 -35 22 -50 22 -26 0 -26 2 -29
71 l-3 71 150 78 c83 43 170 89 194 103 l44 25 -61 31 c-34 17 -69 31 -79 30
-10 0 -94 -39 -188 -86z"/>
<path d="M8474 11805 c-683 -120 -1140 -756 -1038 -1443 78 -529 470 -942
1004 -1058 118 -26 380 -26 500 0 254 54 455 157 631 323 127 120 264 323 257
381 -3 24 -20 36 -183 116 -113 56 -193 89 -214 90 -31 1 -39 -5 -73 -54 -131
-189 -245 -282 -414 -340 -197 -68 -460 -39 -649 72 -125 73 -247 220 -313
375 -29 68 -29 99 1 107 12 3 451 6 975 6 l953 0 24 25 c24 23 25 29 25 158 0
268 -63 475 -211 697 -173 259 -445 447 -761 526 -130 32 -384 42 -514 19z
m463 -520 c178 -60 339 -188 414 -331 43 -80 92 -74 -655 -74 -775 0 -716 -10
-639 106 188 280 558 406 880 299z"/>
<path d="M15171 11804 c-162 -27 -343 -99 -481 -190 -380 -250 -592 -674 -566
-1134 32 -585 439 -1052 1026 -1177 118 -25 372 -25 490 0 151 33 300 93 457
185 28 17 54 28 57 25 3 -3 8 -32 12 -65 10 -88 11 -88 246 -88 211 0 244 6
254 47 18 69 -1 1264 -22 1380 -80 450 -423 839 -862 977 -176 55 -424 71
-611 40z m476 -521 c106 -38 179 -83 264 -161 145 -134 223 -285 249 -486 34
-250 -90 -540 -297 -694 -213 -160 -474 -200 -731 -113 -109 38 -180 81 -269
165 -114 107 -183 231 -218 390 -24 109 -17 313 15 406 92 271 291 453 565
516 41 9 105 13 200 10 125 -3 149 -6 222 -33z"/>
</g>
</svg>
